<?xml version="1.0" encoding="UTF-8" standalone="no"?>
<!-- Created with Inkscape (http://www.inkscape.org/) -->

<svg
   xmlns:dc="http://purl.org/dc/elements/1.1/"
   xmlns:cc="http://creativecommons.org/ns#"
   xmlns:rdf="http://www.w3.org/1999/02/22-rdf-syntax-ns#"
   xmlns:svg="http://www.w3.org/2000/svg"
   xmlns="http://www.w3.org/2000/svg"
   xmlns:sodipodi="http://sodipodi.sourceforge.net/DTD/sodipodi-0.dtd"
   xmlns:inkscape="http://www.inkscape.org/namespaces/inkscape"
   width="250"
   height="225"
   viewBox="0 0 66.145832 59.531252"
   version="1.1"
   id="svg8"
   inkscape:version="0.92.4 (33fec40, 2019-01-16)"
   sodipodi:docname="rbcLogo.svg">
  <defs
     id="defs2">
    <filter
       inkscape:label="Sharpen More"
       inkscape:menu="Image Effects"
       inkscape:menu-tooltip="Sharpen edges and boundaries within the object, force=0.3"
       style="color-interpolation-filters:sRGB"
       id="filter884">
      <feConvolveMatrix
         targetY="1"
         targetX="1"
         in="SourceGraphic"
         divisor="1"
         kernelMatrix="0 -0.3 0 -0.3 2.2 -0.3 0 -0.3 0"
         order="3 3"
         result="result1"
         id="feConvolveMatrix880" />
      <feBlend
         in2="SourceGraphic"
         mode="normal"
         result="result2"
         id="feBlend882" />
    </filter>
  </defs>
  <sodipodi:namedview
     id="base"
     pagecolor="#ffffff"
     bordercolor="#666666"
     borderopacity="1.0"
     inkscape:pageopacity="0.0"
     inkscape:pageshadow="2"
     inkscape:zoom="1.4"
     inkscape:cx="95.267491"
     inkscape:cy="72.453636"
     inkscape:document-units="px"
     inkscape:current-layer="layer1"
     showgrid="false"
     units="px"
     inkscape:window-width="1366"
     inkscape:window-height="744"
     inkscape:window-x="0"
     inkscape:window-y="24"
     inkscape:window-maximized="1" />
  <metadata
     id="metadata5">
    <rdf:RDF>
      <cc:Work
         rdf:about="">
        <dc:format>image/svg+xml</dc:format>
        <dc:type
           rdf:resource="http://purl.org/dc/dcmitype/StillImage" />
        <dc:title></dc:title>
      </cc:Work>
    </rdf:RDF>
  </metadata>
  <g
     inkscape:label="Layer 1"
     inkscape:groupmode="layer"
     id="layer1"
     transform="translate(0,-237.46874)">
    <path
       style="fill:#000000;stroke-width:0.11387178"
       d="m 47.555526,296.93327 c -0.0431,-0.0425 -0.0784,-0.83224 -0.0784,-1.75494 0,-1.56591 0.0144,-1.67768 0.2153,-1.67768 0.12321,0 0.50181,0.32654 0.88514,0.76344 0.36841,0.41989 0.83904,0.94009 1.04583,1.15598 l 0.37599,0.39256 v -1.15599 c 0,-0.95214 0.0303,-1.15599 0.17196,-1.15599 0.14546,0 0.17197,0.26979 0.17197,1.74953 0,1.40076 -0.0301,1.73811 -0.15101,1.69234 -0.0831,-0.0315 -0.63766,-0.62293 -1.23246,-1.31439 l -1.08145,-1.25724 -0.0328,1.23157 c -0.0309,1.15934 -0.10753,1.51093 -0.29011,1.33081 z m 4.37547,-0.15471 c -1.22041,-0.63606 -1.20601,-2.43596 0.0244,-3.05523 0.80929,-0.4073 1.89614,-0.23094 2.27614,0.36933 0.24659,0.38953 -0.0366,0.45945 -0.36925,0.0912 -0.39074,-0.43263 -0.74373,-0.51702 -1.26452,-0.30236 -1.17571,0.48462 -1.15365,2.24569 0.034,2.71448 0.34977,0.13807 0.52755,0.1507 0.80032,0.0569 0.32682,-0.11239 0.35067,-0.15832 0.35067,-0.67504 0,-0.516 -0.0199,-0.55443 -0.28662,-0.55443 -0.17834,0 -0.28662,-0.0641 -0.28662,-0.16965 0,-0.13024 0.1465,-0.16966 0.63057,-0.16966 h 0.63056 v 0.79747 0.79749 l -0.39759,0.16388 c -0.56727,0.23382 -1.63134,0.20186 -2.14211,-0.0643 z m 5.50309,0 c -0.90035,-0.46926 -1.19114,-1.67134 -0.60881,-2.51675 0.54161,-0.7863 1.79914,-1.01519 2.60597,-0.47433 0.40768,0.27328 0.52158,0.48785 0.34924,0.65786 -0.0432,0.0427 -0.21888,-0.0739 -0.39029,-0.25903 -0.39854,-0.43046 -0.76971,-0.51902 -1.28506,-0.30658 -0.44922,0.18515 -0.8829,0.86007 -0.8829,1.374 0,0.54374 0.40943,1.14358 0.91744,1.34411 0.5248,0.20715 0.73595,0.14814 1.28833,-0.36006 0.33074,-0.30429 0.56554,-0.26011 0.35899,0.0676 -0.42225,0.66983 -1.54315,0.89527 -2.35291,0.47323 z m -25.31969,-1.58139 v -1.69652 h 0.92472 c 0.926,0 1.30392,0.10687 1.56522,0.44261 0.2259,0.29025 0.17477,0.76946 -0.10253,0.96108 l -0.2495,0.17239 0.30682,0.23808 c 0.21056,0.1634 0.30681,0.34429 0.30681,0.57661 0,0.7667 -0.43515,1.00226 -1.85146,1.00226 h -0.90008 z m 1.8419,1.24013 c 0.2751,-0.14524 0.2922,-0.63658 0.032,-0.92019 -0.13408,-0.14616 -0.35268,-0.20684 -0.7452,-0.20684 h -0.55548 v 0.62205 0.62206 h 0.52346 c 0.2879,0 0.62324,-0.0527 0.7452,-0.11708 z m 0.005,-1.70849 c 0.30268,-0.47127 -0.0388,-0.91967 -0.71154,-0.93438 l -0.50467,-0.0111 -0.0363,0.43602 c -0.0582,0.69891 0.0201,0.78915 0.62576,0.72179 0.29043,-0.0323 0.57247,-0.12788 0.62677,-0.2124 z m 1.41668,2.02573 c -0.0331,-0.0852 -0.0458,-0.83954 -0.0282,-1.67617 l 0.0322,-1.52116 0.92448,-0.0326 c 0.84972,-0.0299 0.94936,-0.01 1.23245,0.24908 0.43158,0.39458 0.41708,0.88466 -0.036,1.21508 -0.18918,0.13797 -0.34395,0.282 -0.34395,0.32006 0,0.0381 0.22888,0.3795 0.50863,0.75878 0.27975,0.37926 0.47752,0.72027 0.43948,0.75779 -0.038,0.0375 -0.18318,0.0682 -0.32256,0.0682 -0.18157,0 -0.41947,-0.22449 -0.83898,-0.7917 -0.75544,-1.02141 -0.91216,-1.02605 -0.95646,-0.0282 -0.0308,0.69415 -0.0574,0.76672 -0.29237,0.79965 -0.14217,0.0199 -0.28561,-0.0335 -0.31878,-0.11881 z m 1.55174,-1.89667 c 0.12611,-0.12442 0.2293,-0.32601 0.2293,-0.448 0,-0.32147 -0.4585,-0.69913 -0.80086,-0.65968 -0.25218,0.0291 -0.29279,0.095 -0.32418,0.52683 -0.0198,0.2715 -0.008,0.56415 0.025,0.65034 0.0901,0.23152 0.60741,0.19024 0.87068,-0.0694 z m 1.68151,1.96041 c -0.042,-0.0414 -0.0764,-0.8049 -0.0764,-1.69651 v -1.62112 h 1.20379 c 0.72611,0 1.20381,0.0449 1.20381,0.1131 0,0.0653 -0.36306,0.11311 -0.85986,0.11311 h -0.85986 v 0.5655 0.56551 h 0.57324 c 0.56032,0 0.75382,0.13363 0.39189,0.27065 -0.0997,0.0378 -0.35771,0.0687 -0.57325,0.0687 h -0.39188 v 0.67365 0.67365 l 0.82202,0.0332 c 0.53029,0.0214 0.83885,0.0834 0.86942,0.17461 0.0358,0.10674 -0.23116,0.14138 -1.08954,0.14138 -0.6253,0 -1.17132,-0.0339 -1.21335,-0.0754 z m 3.70996,-0.17019 c -0.0632,-0.14485 -0.35162,-0.84866 -0.64094,-1.56402 -0.28932,-0.71536 -0.55342,-1.36429 -0.58689,-1.44204 -0.0409,-0.0949 0.0515,-0.14138 0.28084,-0.14138 0.31984,0 0.36395,0.056 0.68962,0.87653 0.19137,0.4821 0.38195,0.99106 0.42352,1.13103 0.0415,0.13995 0.11684,0.25446 0.16727,0.25446 0.0504,0 0.25722,-0.43261 0.45951,-0.96136 0.20229,-0.52875 0.40866,-0.96136 0.45859,-0.96136 0.0499,0 0.2563,0.43261 0.4586,0.96136 0.20229,0.52875 0.4026,0.96129 0.44515,0.96119 0.0426,-9e-5 0.27377,-0.50903 0.51387,-1.131 0.27434,-0.71068 0.49798,-1.13085 0.6019,-1.13085 0.18271,0 0.22671,0.28855 0.0595,0.39048 -0.0582,0.0355 -0.13981,0.21713 -0.18134,0.40367 -0.0415,0.18653 -0.14248,0.4786 -0.22435,0.64904 -0.0819,0.17043 -0.28948,0.68133 -0.46136,1.1353 -0.17187,0.45398 -0.36986,0.80656 -0.43996,0.78351 -0.11332,-0.0373 -0.3718,-0.57811 -0.76896,-1.60892 -0.13008,-0.33765 -0.13255,-0.33463 -0.50429,0.61615 -0.20546,0.52552 -0.43248,0.97485 -0.50449,0.99853 -0.072,0.0237 -0.18263,-0.0755 -0.24583,-0.22032 z m 3.78035,-1.45843 v -1.70404 l 0.31528,0.0358 0.31528,0.0358 0.0332,1.30066 c 0.0438,1.7148 -0.0165,2.03582 -0.38236,2.03582 h -0.28142 z m 15.42011,1.53404 c -1.09515,-0.38223 -1.47384,-1.60081 -0.78195,-2.51628 0.37446,-0.49549 0.82813,-0.70677 1.51757,-0.70677 1.10449,0 1.86372,0.65399 1.86236,1.60417 -10e-4,0.88598 -0.31596,1.33907 -1.12863,1.625 -0.55585,0.19557 -0.89553,0.19416 -1.46935,-0.006 z m 1.13041,-0.0988 c 0.74685,-0.30785 1.02635,-1.68479 0.49875,-2.45714 -0.24378,-0.35688 -0.30631,-0.38431 -0.87614,-0.38431 -0.53978,0 -0.64271,0.0385 -0.8553,0.31933 -0.19014,0.25124 -0.24167,0.48264 -0.24167,1.08536 0,0.8298 0.099,1.02901 0.68789,1.3842 0.41092,0.24785 0.32639,0.2422 0.78647,0.0526 z M 0.01066619,291.8892 c -0.0337,-1.90936 0.0195,-14.38443 0.0616,-14.45166 0.0328,-0.0523 0.25211,-0.0911 0.48748,-0.0863 0.23537,0.005 1.46506001,9.9e-4 2.73265001,-0.008 l 2.3047,-0.0163 0.0783,-0.98963 c 0.0903,-1.14195 -0.16371,-11.3384 -0.28249,-11.3384 -0.0435,0 -0.10615,0.1018 -0.13913,0.22621 -0.0718,0.2708 -0.2591,0.29585 -0.35568,0.0476 -0.11737,-0.30172 0.0502,-0.72617 0.28668,-0.72617 0.18504,0 0.21686,-0.0867 0.21686,-0.59064 v -0.59063 l -0.2408,0.23754 c -0.19169,0.18911 -0.21617,0.28297 -0.12002,0.46022 0.14099,0.25989 -0.0209,0.48351 -0.34999,0.48351 -0.12368,0 -0.20637,0.0831 -0.20637,0.20735 0,0.31277 -0.1305,0.37907 -0.35377,0.17974 -0.14165,-0.12647 -0.26199,-0.14833 -0.41056,-0.0746 -0.31452,0.15617 -0.74776,0.0145 -0.60976,-0.19944 0.16219,-0.25138 0.13597,-0.4524 -0.059,-0.4524 -0.11583,0 -0.17197,0.11431 -0.17197,0.35012 0,0.36349 -0.31689,1.00709 -0.49586,1.00709 -0.0564,0 -0.081,-0.18117 -0.0548,-0.4026 0.0453,-0.38302 0.0334,-0.39912 -0.24542,-0.3305 -0.16118,0.0397 -0.37822,0.14781 -0.48231,0.24033 -0.12864,0.11434 -0.2138,0.12903 -0.26587,0.0459 -0.0422,-0.0673 -0.12692,-0.0916 -0.18838,-0.0542 -0.0615,0.0375 -0.18440001,0.009 -0.27320001,-0.064 -0.0888,-0.0727 -0.26276,-0.10046 -0.3866,-0.0617 -0.27768,0.0869 -0.40691,-0.0925 -0.25959,-0.3605 0.11091,-0.20173 0.36524,-0.34385 1.48613001,-0.83042 0.33612,-0.14591 0.71367,-0.40735 0.839,-0.58099 0.12534,-0.17365 0.29546,-0.31571 0.37805,-0.31571 0.0826,0 0.33478,-0.0761 0.56042,-0.16911 l 0.41025,-0.1691 -0.18715,-0.3217 c -0.18268,-0.31401 -0.17814,-0.33276 0.19028,-0.78503 0.32652,-0.40083 0.40638,-0.44548 0.59213,-0.33105 0.17835,0.10988 0.25861,0.0872 0.47396,-0.13406 l 0.25925,-0.26633 -0.31528,0.0724 c -0.18572,0.0426 -0.31528,0.0251 -0.31528,-0.0428 0,-0.20755 -0.24931,-0.12136 -0.64807,0.22404 -0.21546,0.18662 -0.46732,0.33931 -0.55972,0.33931 -0.2247,0 -0.21203,-0.11272 0.0327,-0.29049 0.19041,-0.13833 0.19002,-0.14981 -0.008,-0.22541 -0.11459,-0.0438 -0.26275,-0.0259 -0.32925,0.0397 -0.18629,0.18378 -0.43692,0.0302 -0.43692,-0.26776 0,-0.20534 0.0843,-0.28897 0.36317,-0.36025 0.19974,-0.0511 0.41901,-0.19248 0.48725,-0.31427 0.0682,-0.12179 0.1685,-0.25336 0.22277,-0.29239 0.13738,-0.0988 0.49854,0.008 0.65481,0.19391 0.0954,0.11335 0.18887,0.1242 0.3477,0.0403 0.25291,-0.13352 0.28844,-0.33295 0.0593,-0.33295 -0.26276,0 -0.43226,-0.27702 -0.26927,-0.44008 0.11124,-0.11129 0.0941,-0.17447 -0.082,-0.30269 -0.2917,-0.21239 -0.3999,-0.20441 -0.48673,0.0359 -0.14854,0.41107 -0.25952,0.47019 -0.57732,0.30753 -0.27262,-0.13953 -0.33111,-0.12818 -0.63349,0.12282 -0.18322,0.15209 -0.38077,0.2829 -0.43899,0.29067 -0.22404,0.0299 -0.28232,0.0487 -0.42113,0.13565 -0.17943,0.1124 -0.37261,0.002 -0.37261,-0.21301 0,-0.1984 -0.0534,-0.2026 -0.33907,-0.0266 -0.18229001,0.11231 -0.26291001,0.0992 -0.45704001,-0.0741 -0.46165,-0.41215 -0.18799,-0.90524 0.34595001,-0.62333 0.21698,0.11455 0.24538,0.10857 0.18775,-0.0396 -0.1116,-0.28691 0.18759,-0.44605 0.54044,-0.28746 0.25066,0.11267 0.33446,0.10614 0.47997,-0.0374 0.15861,-0.15646 0.1284,-0.18145 -0.30138,-0.24924 -0.26271,-0.0414 -0.67928,-0.17683 -0.92572,-0.30086 -0.40269001,-0.20267 -0.44807001,-0.26919 -0.44807001,-0.65677 0,-0.54573 0.0732,-0.61405 0.41872001,-0.39071 0.25807,0.1668 0.28921,0.16438 0.43846,-0.0341 0.1411,-0.18768 0.19159,-0.19507 0.41441,-0.0607 0.21898,0.13212 0.26783,0.12826 0.35663,-0.0283 0.0566,-0.0998 0.17771,-0.18137 0.26916,-0.18137 0.20329,0 0.20674,-0.0517 0.023,-0.34429 -0.18121,-0.28845 -0.0306,-0.39609 0.70685,-0.50494 0.67877,-0.10021 0.74959,-0.15073 0.53668,-0.38281 -0.15945,-0.17383 -0.14903,-0.22021 0.11182,-0.49773 0.15821,-0.16833 0.37585,-0.30982 0.48364,-0.31444 0.1078,-0.005 0.39655,-0.0958 0.64166,-0.2026 0.42186,-0.18385 0.43511,-0.20463 0.24804,-0.38919 -0.1087,-0.10722 -0.3773,-0.33014 -0.59689,-0.49537 -0.38246,-0.28779 -0.42287,-0.29446 -0.9602,-0.15861 -0.30852,0.078 -0.62139,0.10498 -0.69528,0.0599 -0.1225,-0.0747 -0.3961,-0.11938 -1.27332,-0.20802 -0.17035,-0.0173 -0.37671,-0.0837 -0.45858,-0.14759 -0.0819,-0.0639 -0.30363001,-0.16555 -0.49280001,-0.22573 -0.27818,-0.0885 -0.34394,-0.17252 -0.34394,-0.43933 0,-0.2775 0.0511,-0.33566 0.32205,-0.36631 0.17713,-0.02 0.35033001,-0.10911 0.38487001,-0.19792 0.0804,-0.20679 0.38223,-0.21118 0.38223,-0.006 0,0.22345 0.66353,0.47883 0.82648,0.31809 0.0855,-0.0844 0.19376,-0.0883 0.33756,-0.0123 0.16143,0.0852 0.21173,0.0721 0.21173,-0.0551 0,-0.0918 -0.0516,-0.19842 -0.11464,-0.23686 -0.22291,-0.13591 -0.11005,-0.26886 0.25795,-0.30386 0.23881,-0.0227 0.37261,-0.0964 0.37261,-0.2051 0,-0.11101 -0.0891,-0.15742 -0.25796,-0.13426 -0.14188,0.0194 -0.25796,-0.0188 -0.25796,-0.0848 0,-0.0661 -0.0714,-0.12022 -0.1586,-0.12022 -0.0872,0 -0.18891,-0.0891 -0.22596,-0.19793 -0.0371,-0.10886 -0.11448,-0.27427 -0.17206,-0.36757 -0.26117,-0.42324 -0.38547,-0.79075 -0.32234,-0.95305 0.0581,-0.14922 0.11816,-0.15514 0.38784,-0.0382 0.17554,0.0762 0.34495,0.16514 0.37648,0.19784 0.25933,0.26898 2.02322,0.41858 2.25377,0.19115 0.0367,-0.0362 0.0353,-0.18934 -0.003,-0.34032 -0.0796,-0.31289 -0.3483,-0.41087 -1.13284,-0.4131 -0.45575,-9.9e-4 -0.54457,-0.0362 -0.54457,-0.2139 0,-0.28996 -0.31404,-0.541 -0.4764,-0.38083 -0.1553,0.15321 -0.0275,0.36698 0.21947,0.36698 0.1295,0 0.1512,0.0364 0.0696,0.1169 -0.19569,0.19305 -1.44077,-0.56003 -1.54175,-0.9325 -0.0564,-0.20791 -0.0314,-0.34823 0.0778,-0.43766 0.0884,-0.0724 0.16078,-0.19158 0.16078,-0.26482 0,-0.0733 0.0612,-0.19357 0.13602,-0.26737 0.10491,-0.1035 0.18354,-0.0918 0.34394,0.0515 0.19452,0.17367 0.20793,0.17036 0.20793,-0.0514 0,-0.13039 -0.0516,-0.26851 -0.11465,-0.30697 -0.15393,-0.0938 -0.14462,-0.46765 0.023,-0.92506 0.10015,-0.2732 0.2077,-0.3756 0.39451,-0.3756 0.14125,0 0.2887,-0.0509 0.32767,-0.11311 0.0968,-0.15451 0.55463,-0.14277 0.71802,0.0185 0.10133,0.1 0.1587,0.066 0.23906,-0.14137 0.0582,-0.15009 0.21378,-0.36889 0.34582,-0.48622 0.22062,-0.19605 0.24605,-0.19792 0.31402,-0.0232 0.0666,0.1712 0.09,0.16756 0.23496,-0.0366 0.13639,-0.19208 0.27006,-0.22219 0.87428,-0.19695 0.3923,0.0164 0.82596,0.0907 0.96369,0.16511 0.13773,0.0744 0.34502,0.13531 0.46064,0.13531 0.11562,0 0.40336,0.12948 0.63943,0.28772 0.3598,0.24118 0.41047,0.32229 0.31324,0.50151 -0.0638,0.1176 -0.11599,0.34311 -0.11599,0.50116 0,0.25409 0.037,0.28006 0.31952,0.22432 0.26705,-0.0527 0.34625,-0.0104 0.48231,0.25731 0.0895,0.17619 0.23374,0.4053 0.32044,0.50914 0.13805,0.16533 0.11395,0.22722 -0.19388,0.4978 -0.30383,0.26705 -0.32759,0.32625 -0.17513,0.43622 0.29929,0.2159 0.0787,0.44354 -0.85709,0.88454 -0.93685,0.44149 -1.22832,0.67185 -1.10307,0.87177 0.0858,0.13695 0.40437,0.16039 0.40437,0.0298 0,-0.12366 0.6749,-0.36191 0.84394,-0.29793 0.0766,0.029 0.28889,-0.10124 0.47169,-0.28946 0.37426,-0.38538 0.63339,-0.44209 0.63339,-0.13863 0,0.11197 0.0574,0.26022 0.12758,0.32945 0.16519,0.16296 0.0323,0.37178 -0.23657,0.37178 -0.12437,0 -0.23744,0.10747 -0.27711,0.26336 -0.0369,0.14486 -0.20127,0.32372 -0.36537,0.39748 -0.16411,0.0738 -0.27706,0.19699 -0.251,0.27386 0.0588,0.17332 0.88005,0.18628 0.9841,0.0155 0.0857,-0.14065 0.8783398,-0.29035 0.9842298,-0.1859 0.038,0.0375 -0.0697,0.2112 -0.23936,0.38592 -0.3401698,0.35028 -0.2793298,0.56523 0.0948,0.33476 0.14367,-0.0885 0.27907,-0.10546 0.34249,-0.0429 0.16397,0.16176 -0.005,0.45267 -0.34175,0.58722 -0.1683498,0.0674 -0.4711398,0.22675 -0.6728598,0.35427 -0.28696,0.18138 -0.41631,0.20568 -0.59436,0.11167 -0.38344,-0.20243 -0.77555,-0.14121 -0.96993,0.15146 -0.0992,0.14938 -0.4018,0.3566 -0.67241,0.46049 -0.32308,0.12404 -0.61995,0.35923 -0.86461,0.685 -0.43308,0.57662 -0.4576,0.76438 -0.14331,1.09717 0.12611,0.13355 0.22929,0.335 0.22929,0.44768 0,0.14032 0.0859,0.20488 0.27258,0.20488 0.35463,0 0.48571,-0.17328 0.5864,-0.77518 0.0784,-0.4686 0.0982,-0.48931 0.40995,-0.42781 0.27558,0.0544 0.35959,0.0112 0.52932,-0.2723 0.11097,-0.18531 0.44348,-0.46161 0.73893,-0.61402 0.48563,-0.2505 0.54427,-0.25881 0.61123,-0.0867 0.0594,0.15274 0.093,0.16019 0.16972,0.0377 0.18066,-0.28836 0.3796298,-0.002 0.3172698,0.45648 -0.0327,0.24078 -0.0187,0.41287 0.0312,0.38244 0.1398,-0.0852 0.37965,0.25812 0.30834,0.44142 -0.0348,0.0896 0.011,0.22368 0.10182,0.29805 0.0908,0.0744 0.16516,0.17994 0.16516,0.2346 0,0.18013 -0.9405998,1.00393 -1.1462598,1.00393 -0.2841,0 -0.46085,0.25059 -0.38324,0.54334 0.0543,0.20487 -0.007,0.27904 -0.34875,0.41977 -0.43946,0.18115 -0.56468,0.50721 -0.19478,0.50721 0.37338,0 0.5843,0.12753 0.75756,0.45807 0.0929,0.17719 0.28105,0.33363 0.42569,0.35388 0.15548,0.0218 0.2725498,0.12683 0.2925498,0.26251 0.0183,0.1244 0.21774,0.34503 0.44314,0.49026 0.50978,0.32847 0.38363,0.50335 -0.38932,0.53972 -0.3001598,0.0142 -0.7134098,0.0618 -0.9183398,0.10577 -0.24148,0.0519 -0.37261,0.0369 -0.37261,-0.0427 0,-0.0676 -0.10912,-0.22312 -0.24248,-0.34569 -0.19079,-0.17536 -0.30283,-0.20024 -0.52554,-0.1167 -0.15568,0.0584 -0.32447,0.0809 -0.37509,0.05 -0.0506,-0.0309 -0.15538,0.0192 -0.23279,0.1112 -0.084,0.0999 -0.24284,0.14204 -0.39411,0.10459 -0.15511,-0.0385 -0.31105,0.006 -0.40217,0.11419 -0.0819,0.0973 -0.27151,0.17692 -0.42143,0.17692 -0.21256,0 -0.27258,0.0608 -0.27258,0.27608 0,0.42658 0.19822,0.45059 0.58333,0.0706 0.39288,-0.38759 0.52081,-0.41392 0.84301,-0.17351 0.1224,0.0913 0.31587,0.16606 0.42993,0.16606 0.11406,0 0.20739,0.0585 0.20739,0.12994 0,0.15944 0.66323,0.80646 1.01943,0.99451 0.24912,0.13153 0.25186,0.14732 0.0615,0.35486 -0.12853,0.14009 -0.35075,0.2172 -0.62604,0.2172 -0.24969,0 -0.48937,0.0744 -0.57761,0.17929 -0.0944,0.11222 -0.27118,0.16186 -0.47263,0.13268 -0.43212,-0.0625 -0.40966,0.11157 0.0884,0.68558 0.39495,0.45519 0.4352,0.47277 1.08239,0.47277 0.36971,0 0.70408,0.0509 0.74305,0.1131 0.0389,0.0623 0.1933,0.1131 0.34297,0.1131 0.15731,0 0.3002898,0.0836 0.3388798,0.19793 0.0367,0.10886 0.23366,0.27876 0.43766,0.37756 0.50623,0.24519 0.64904,0.66881 0.36125,1.07157 -0.12081,0.16907 -0.27124,0.38187 -0.33429,0.47289 -0.28248,0.40778 -0.7382398,0.82068 -0.9058598,0.82068 -0.12827,0 -0.18329,-0.10454 -0.18329,-0.34829 0,-0.32815 -0.0199,-0.34398 -0.34394,-0.27376 -0.27365,0.0593 -0.34395,0.0364 -0.34395,-0.11199 0,-0.12872 -0.0799,-0.1753 -0.25795,-0.15036 -0.52477,0.0735 -0.27126,0.40772 0.68158,0.89852 0.34172,0.17601 0.45992,0.47889 0.14889,0.3815 -0.25259,-0.0791 -0.30188,0.0523 -0.0959,0.25557 0.20011,0.19742 -0.10236,0.53237 -0.31991,0.35426 -0.0862,-0.0706 -0.15676,-0.20005 -0.15676,-0.28769 0,-0.0877 -0.0774,-0.18865 -0.17197,-0.22446 -0.0946,-0.0358 -0.17197,-0.18218 -0.17197,-0.32527 0,-0.16974 -0.20354,-0.4407 -0.58564,-0.7796 -0.57555,-0.51049 -0.79014,-0.62292 -0.79014,-0.41396 0,0.058 0.1062,0.13873 0.23598,0.17936 0.32291,0.10111 0.25641,0.55063 -0.0886,0.59903 -0.19885,0.0279 -0.26834,-0.0334 -0.32049,-0.28275 -0.16213,-0.77521 -0.29945,-1.1504 -0.47309,-1.29256 -0.17154,-0.14045 -0.18025,-0.007 -0.10812,1.65483 0.0432,0.99417 0.12514,2.1893 0.1822,2.65585 0.0571,0.46653 0.1335,1.66258 0.16987,2.65788 0.0751,2.05596 0.39694,5.83973 0.50721,5.9635 0.0403,0.0453 1.74396,0.086 3.7858698,0.0906 2.92925,0.007 3.73254,-0.0228 3.80716,-0.13881 0.052,-0.0809 0.0954,-0.92826 0.0963,-1.88306 10e-4,-1.36597 -0.0377,-1.81796 -0.18328,-2.12064 -0.21419,-0.44528 -0.19743,-0.4391 -0.55805,-0.20599 -0.18558,0.11994 -0.33735,0.14503 -0.4618,0.0764 -0.16779,-0.0926 -0.16838,-0.11627 -0.006,-0.24907 0.53554,-0.43846 -0.13665,-0.9131 -1.22522,-0.86515 -0.55863,0.0247 -0.65921,-8.6e-4 -0.65921,-0.16567 0,-0.11337 -0.11975,-0.22435 -0.28662,-0.26567 -0.15764,-0.0391 -0.28662,-0.13771 -0.28662,-0.21929 0,-0.18897 0.87747,-0.80833 1.28264,-0.90537 0.24936,-0.0597 0.30405,-0.13304 0.28663,-0.38431 -0.0167,-0.24049 0.0344,-0.31843 0.22673,-0.34554 0.37008,-0.0522 0.4464,-0.36107 0.0892,-0.36107 -0.22531,0 -0.30033,-0.0712 -0.354,-0.33597 -0.0375,-0.18502 -0.16235,-0.36545 -0.27789,-0.40162 -0.11538,-0.0361 -0.24571,-0.17741 -0.28964,-0.31394 -0.0439,-0.13654 -0.15814,-0.30473 -0.25379,-0.37372 -0.22757,-0.16416 -0.0956,-0.49747 0.19692,-0.49747 0.12437,0 0.26059,-0.055 0.30272,-0.12227 0.0421,-0.0673 0.19585,-0.0927 0.3416,-0.0566 0.29169,0.0722 0.62716,-0.0173 0.62716,-0.16736 0,-0.0527 -0.18057,-0.1293 -0.40126,-0.17014 -0.67819,-0.12551 -0.47671,-0.40304 0.48725,-0.67117 0.41035,-0.11415 0.30089,-0.26251 -0.25426,-0.34464 -0.28173,-0.0416 -0.57125,-0.14593 -0.64339,-0.23169 -0.22341,-0.26556 -0.0335,-0.4981 0.4068,-0.4981 0.27505,0 0.40486,-0.052 0.40486,-0.16209 0,-0.10738 -0.11786,-0.15878 -0.34927,-0.15229 -0.50015,0.014 -0.63262,-0.16166 -0.39343,-0.5218 0.13613,-0.20494 0.29668,-0.29484 0.5266,-0.29484 0.39739,0 0.42169,-0.17273 0.10605,-0.7537 -0.2483,-0.45703 -0.21908,-0.60351 0.12042,-0.60351 0.29355,0 0.40053,-0.28731 0.22646,-0.60817 -0.16112,-0.29699 -0.23933,-0.84727 -0.12991,-0.91398 0.0418,-0.0255 0.14625,-0.003 0.2321,0.0488 0.29684,0.18097 0.46352,-0.005 0.46352,-0.51805 0,-0.43058 0.0324,-0.49685 0.24267,-0.49685 0.19106,0 0.22911,-0.0512 0.17889,-0.2406 -0.0798,-0.30121 0.22486,-0.77731 0.49748,-0.77731 0.11263,0 0.31132,0.17813 0.44154,0.39585 0.13021,0.21772 0.29333,0.39585 0.36247,0.39585 0.0691,0 0.11654,0.0891 0.10531,0.19793 -0.0483,0.4682 0.002,0.6433 0.14358,0.5033 0.20802,-0.20521 0.31512,-0.16572 0.44175,0.16285 0.0885,0.22949 0.0745,0.34276 -0.0602,0.48958 -0.21972,0.23953 -0.22584,0.38622 -0.0127,0.30555 0.20011,-0.0758 0.31097,0.17032 0.17429,0.38687 -0.0728,0.11537 -0.0305,0.17639 0.15332,0.2209 0.32415,0.0785 0.38102,0.36364 0.12325,0.61793 -0.19109,0.18852 -0.18864,0.20753 0.0516,0.39944 0.13873,0.11083 0.25225,0.25997 0.25225,0.33143 0,0.0714 0.044,0.10309 0.0978,0.0703 0.0538,-0.0328 0.1937,0.01 0.31095,0.0942 0.18674,0.13471 0.19298,0.17782 0.0503,0.34747 -0.0896,0.10652 -0.28793,0.24056 -0.44072,0.29786 -0.26869,0.10078 -0.27108,0.11153 -0.0729,0.32753 0.11268,0.12283 0.30006,0.22332 0.4164,0.22332 0.11633,0 0.21151,0.042 0.21151,0.0934 0,0.20767 -0.5519,0.58579 -0.86723,0.59415 -0.18511,0.005 -0.25917,0.0344 -0.16459,0.0655 0.0946,0.0311 0.24509,0.0797 0.33445,0.10787 0.12384,0.0391 0.13066,0.0827 0.0287,0.18331 -0.21841,0.21547 -0.15478,0.31298 0.20422,0.31298 0.41576,0 0.98189,0.47737 0.8792,0.74137 -0.0537,0.138 -0.1745,0.16805 -0.50069,0.12453 -0.29676,-0.0396 -0.49208,-0.002 -0.63056,0.1214 -0.3235,0.28823 -0.23761,0.40459 0.25091,0.33995 0.8458,-0.11192 1.07831,0.67931 0.27634,0.94042 -0.32061,0.10438 -0.36934,0.15818 -0.26049,0.28758 0.0737,0.0875 0.20661,0.15917 0.29544,0.15917 0.22825,0 0.32137,0.3104 0.15313,0.5104 -0.11691,0.13896 -0.10319,0.16821 0.0789,0.16821 0.12122,0 0.27782,-0.0566 0.34799,-0.12587 0.0702,-0.0692 0.18367,-0.0916 0.25223,-0.0498 0.19793,0.12068 0.1451,0.49485 -0.10466,0.74125 -0.36452,0.3596 -0.29083,0.49102 0.22929,0.40897 0.44368,-0.0699 0.45859,-0.0619 0.45859,0.24567 0,0.17492 0.0574,0.37467 0.12759,0.44389 0.15378,0.15172 0.0387,0.37178 -0.19451,0.37178 -0.0924,0 -0.21708,0.12724 -0.27702,0.28275 -0.0599,0.15552 -0.18764,0.28276 -0.28378,0.28276 -0.0961,0 -0.17481,0.0447 -0.17481,0.0993 0,0.19091 0.30071,0.34313 0.55054,0.27868 0.28436,-0.0734 0.33952,0.15421 0.13069,0.53915 -0.10619,0.19573 -0.21339,0.21766 -0.85986,0.17597 -0.73995,-0.0478 -0.85094,-0.005 -0.60868,0.23394 0.0714,0.0704 0.10082,0.20281 0.0653,0.2941 -0.0834,0.21438 -0.97423,0.37004 -1.14629,0.2003 -0.17127,-0.16897 -0.43912,-0.15834 -0.41611,0.0165 0.0396,0.30116 -0.0156,0.42411 -0.19039,0.42411 -0.15768,0 -0.17672,0.17211 -0.14331,1.29532 0.0225,0.75739 0.0921,1.34798 0.16742,1.42215 0.0852,0.0838 0.73702,0.12331 1.92315,0.11643 1.61827,-0.01 1.8012,0.009 1.86487,0.18954 0.16094,0.45588 3.46288,8.05904 3.73706,8.60507 0.11987,0.23873 0.13868,0.24372 0.21306,0.0565 0.0449,-0.11291 0.83403,-2.05567 1.75368,-4.31726 0.91964,-2.26158 1.67208,-4.17746 1.67208,-4.25747 0,-0.08 0.0836,-0.17713 0.18572,-0.2158 0.10214,-0.0387 4.98458,-0.0681 10.84986,-0.0652 5.86527,0.003 10.67558,-0.009 10.68957,-0.0266 0.042,-0.0523 0.29056,-7.97253 0.28882,-9.20362 -0.002,-1.24619 -0.0806,-1.41915 -0.71816,-1.57613 -0.33005,-0.0813 -0.4605,-0.50549 -0.15544,-0.50549 0.0879,0 0.32864,-0.15556 0.53495,-0.34567 l 0.37509,-0.34567 -0.23877,-0.23556 c -0.3295,-0.32504 -0.61858,-0.20197 -0.53174,0.22639 0.0577,0.28477 0.005,0.37051 -0.41875,0.67776 -0.26666,0.19346 -0.54365,0.46812 -0.61553,0.61037 -0.18252,0.36114 -0.4162,0.36999 -0.78665,0.0298 -0.23809,-0.21865 -0.38182,-0.27077 -0.57324,-0.2079 -0.14052,0.0462 -0.33287,0.0915 -0.42745,0.10059 -0.0946,0.009 -0.26226,0.0254 -0.37261,0.036 -0.11035,0.0106 -0.20064,0.0889 -0.20064,0.17397 0,0.22276 -0.88795,0.77024 -1.18196,0.72875 -0.34536,-0.0487 -0.38379,-0.38138 -0.056,-0.48514 0.22397,-0.0709 0.18094,-0.10055 -0.28688,-0.19756 -0.41355,-0.0857 -0.54129,-0.16004 -0.51379,-0.29878 0.0202,-0.10156 0.13884,-0.18465 0.26378,-0.18465 0.12493,0 0.29165,-0.0411 0.37047,-0.0915 0.0788,-0.0503 0.20067,-0.0565 0.27077,-0.0137 0.18495,0.11275 0.34266,-0.19714 0.19167,-0.37661 -0.0965,-0.1147 -0.0611,-0.19529 0.14987,-0.34105 0.15191,-0.10497 0.29381,-0.17567 0.31531,-0.1571 0.0215,0.0186 0.10763,-0.0587 0.19137,-0.17168 0.13309,-0.17955 0.19888,-0.18807 0.52227,-0.0677 0.4295,0.15994 0.60185,0.0961 0.51015,-0.18888 -0.1002,-0.31146 0.51126,-0.87055 1.21418,-1.11019 0.50209,-0.17117 0.62919,-0.26691 0.67573,-0.50902 0.0735,-0.38252 0.88779,-1.07027 1.32533,-1.11941 0.31204,-0.035 0.33929,-0.0757 0.36694,-0.54682 0.0393,-0.66969 -0.0902,-0.84311 -0.62958,-0.84311 -0.37877,0 -0.56525,0.10769 -1.3529,0.78131 -0.50247,0.42972 -0.94705,0.8304 -0.98796,0.89039 -0.0409,0.06 -0.23803,0.0768 -0.43804,0.0373 -0.23293,-0.046 -0.48716,-0.009 -0.70725,0.10353 -0.18898,0.0964 -0.45214,0.15948 -0.58481,0.14016 -0.27957,-0.0407 -0.42065,-0.31789 -0.16181,-0.31789 0.0956,0 0.20294,-0.0891 0.23856,-0.19793 0.0356,-0.10887 0.22173,-0.28581 0.4136,-0.39322 0.30111,-0.16855 0.35776,-0.17242 0.41383,-0.0282 0.0358,0.0919 0.17807,0.16701 0.3163,0.16701 0.21798,0 0.24534,-0.0507 0.20614,-0.38192 -0.0352,-0.29732 0.0113,-0.42097 0.21006,-0.55828 0.30313,-0.20945 0.23067,-0.53011 -0.11979,-0.53011 -0.32151,0 -1.0768,0.38505 -1.79981,0.91754 -0.32834,0.24182 -0.65335,0.43968 -0.72224,0.43968 -0.21506,0 -0.83825,0.35081 -1.35079,0.7604 -0.37443,0.29923 -0.55897,0.37627 -0.77386,0.32306 -0.1992,-0.0493 -0.28218,-0.0233 -0.28218,0.0886 0,0.0879 -0.23347,0.23422 -0.5245,0.32875 -0.50704,0.16466 -0.53473,0.16157 -0.8312,-0.0928 -0.35796,-0.30718 -0.2821,-0.53746 0.27412,-0.8321 0.21684,-0.11487 0.32569,-0.25154 0.30097,-0.37788 -0.0268,-0.13715 0.0343,-0.19792 0.19896,-0.19792 0.15247,0 0.2377,-0.073 0.2377,-0.20359 0,-0.25553 0.21602,-0.47502 0.46749,-0.47502 0.10578,0 0.25123,-0.07 0.32321,-0.15559 0.106,-0.12598 0.20585,-0.13015 0.52506,-0.0219 0.2168,0.0735 0.49572,0.22433 0.61983,0.33514 0.25777,0.23013 0.64399,0.2034 0.64399,-0.0446 0,-0.0916 -0.0885,-0.18336 -0.1967,-0.20392 -0.29166,-0.0554 -0.95538,-0.70762 -0.91352,-0.89768 0.0199,-0.0906 -0.0553,-0.26445 -0.16715,-0.38641 -0.15603,-0.1701 -0.17458,-0.2663 -0.0796,-0.41305 0.0957,-0.14801 0.29496,-0.19131 0.88026,-0.19131 h 0.75651 l -0.0252,-0.3393 c -0.0232,-0.31162 0.002,-0.33644 0.30684,-0.30415 0.18264,0.0193 0.49706,0.1593 0.69871,0.31103 0.4818,0.36253 0.54711,0.348 0.31099,-0.0692 -0.19347,-0.34184 -0.19215,-0.34776 0.14069,-0.63421 0.27171,-0.23381 0.4187,-0.27819 0.76821,-0.23195 0.26847,0.0355 0.45223,0.008 0.48504,-0.0727 0.029,-0.0714 0.0236,0.1443 -0.0122,0.47936 l -0.065,0.60925 0.64826,-0.0531 c 0.35654,-0.0292 0.68197,-0.0863 0.72319,-0.12697 0.0412,-0.0406 0.0702,-0.23897 0.0644,-0.44067 -0.0122,-0.42413 0.11931,-0.53712 0.62804,-0.53953 0.20121,-8.6e-4 0.39773,-0.0526 0.43669,-0.11483 0.039,-0.0623 0.16499,-0.11311 0.28003,-0.11311 0.13338,0 0.22949,-0.10492 0.26527,-0.28957 0.0712,-0.36737 -0.19973,-0.54849 -1.08436,-0.72487 -0.8952,-0.1785 -1.26679,0.0358 -1.54123,0.88904 l -0.13129,0.40816 -0.012,-0.40888 c -0.007,-0.25237 0.0757,-0.51895 0.21727,-0.69646 0.27535,-0.34532 0.29309,-0.53464 0.0501,-0.53464 -0.23598,0 -1.3585,0.53122 -1.96246,0.9287 -0.34171,0.22491 -0.623,0.31542 -0.98023,0.31542 -0.27555,0 -0.56204,0.0602 -0.63666,0.13384 -0.18069,0.17825 -0.30515,0.0406 -0.19335,-0.21379 0.049,-0.11154 0.0796,-0.28241 0.0679,-0.37971 -0.0117,-0.0973 0.10956,-0.24597 0.26941,-0.33037 0.26252,-0.1386 0.31832,-0.12779 0.57684,0.11181 0.20704,0.19187 0.2862,0.21912 0.2862,0.0986 0,-0.0918 -0.0549,-0.22092 -0.12201,-0.28713 -0.0863,-0.0851 -0.0629,-0.17874 0.0799,-0.31954 0.16956,-0.16727 0.32682,-0.18772 0.98187,-0.12766 0.42898,0.0394 0.77997,0.0457 0.77997,0.0142 0,-0.0316 -0.10318,-0.15912 -0.22929,-0.28354 -0.35088,-0.34614 -0.28997,-0.60451 0.17647,-0.74853 0.36154,-0.11164 0.42544,-0.0992 0.58631,0.1137 l 0.18056,0.23898 -0.0608,-0.25869 c -0.087,-0.37049 0.44205,-0.84787 0.85372,-0.77026 0.25672,0.0484 0.29418,0.0233 0.24457,-0.16383 -0.0323,-0.12181 -10e-4,-0.22098 0.0694,-0.22098 0.0704,0 0.12802,-0.0787 0.12802,-0.17491 0,-0.0962 0.15445,-0.26162 0.34322,-0.36759 0.60371,-0.33888 0.4471,-0.51449 -0.39908,-0.44749 -0.50043,0.0397 -0.71958,0.0203 -0.6699,-0.059 0.10554,-0.16846 -1.38379,-0.0195 -2.00778,0.20068 -0.27385,0.0967 -0.69742,0.2762 -0.94127,0.39892 -0.24385,0.12272 -0.5228,0.22314 -0.6199,0.22314 -0.0971,0 -0.17654,0.0509 -0.17654,0.1131 0,0.31486 -0.47142,0.56547 -1.06049,0.56377 -0.4309,-9.8e-4 -0.55304,-0.0328 -0.42993,-0.11136 0.14696,-0.0937 0.14279,-0.10989 -0.0286,-0.11137 -0.11035,-8.6e-4 -0.20063,0.0436 -0.20063,0.0991 0,0.14618 -0.50533,0.24921 -1.45809,0.29728 -0.75738,0.0382 -0.83487,0.0223 -0.83487,-0.17169 0,-0.1176 0.12239,-0.35418 0.27197,-0.52574 0.26515,-0.3041 0.28396,-0.30803 0.74866,-0.15674 0.3406,0.11089 0.51194,0.12041 0.60019,0.0333 0.0883,-0.087 0.0545,-0.15826 -0.11809,-0.24941 -0.30962,-0.16346 -0.31198,-0.53471 -0.004,-0.63115 0.14023,-0.0439 0.21267,-0.13844 0.17678,-0.23071 -0.0335,-0.086 0.0273,-0.22213 0.13501,-0.30253 0.10771,-0.0804 0.25235,-0.24613 0.32142,-0.36825 0.20505,-0.36254 1.29513,-0.53212 1.77885,-0.27673 0.18356,0.0969 0.21654,0.0741 0.21654,-0.14979 0,-0.14526 0.0619,-0.32518 0.13758,-0.39983 0.194,-0.19138 1.06539,-0.1715 1.23332,0.0281 0.0758,0.0902 0.30437,0.21807 0.50788,0.28433 0.31368,0.10213 0.51322,0.0694 1.31081,-0.21468 1.1259,-0.40109 1.16702,-0.42398 1.16702,-0.6499 0,-0.1254 -0.0417,-0.14447 -0.14331,-0.0656 -0.41553,0.3226 -1.5764,0.22148 -1.5764,-0.13732 0,-0.0948 -0.0516,-0.17245 -0.11465,-0.17245 -0.0631,0 -0.11465,-0.0763 -0.11465,-0.16964 0,-0.0933 0.0774,-0.16965 0.17197,-0.16965 0.0946,0 0.17197,-0.0818 0.17197,-0.18164 0,-0.21628 0.56325,-0.68033 0.76913,-0.63369 0.0794,0.018 0.28713,-0.0436 0.46152,-0.13696 l 0.31709,-0.16967 -0.30781,-0.005 c -0.16929,-0.003 -0.44015,0.0451 -0.6019,0.10577 -0.2115,0.0793 -0.29408,0.0733 -0.29408,-0.0216 0,-0.0781 -0.0585,-0.061 -0.14331,0.042 -0.0788,0.0957 -0.33831,0.28861 -0.57664,0.42878 -0.41252,0.24261 -0.45189,0.24616 -0.81987,0.0739 -0.21259,-0.0995 -0.46349,-0.18094 -0.55756,-0.18094 -0.22595,0 -0.33325,-0.29276 -0.15945,-0.43506 0.0754,-0.0617 0.28168,-0.14806 0.45835,-0.1918 0.17667,-0.0437 0.40158,-0.20052 0.49979,-0.3484 0.18353,-0.27632 0.49615,-0.36673 0.49615,-0.1435 0,0.0753 0.10813,0.0986 0.27053,0.0584 0.18656,-0.0462 0.33442,0.003 0.47636,0.1574 0.34969,0.38119 0.80057,0.2866 1.43809,-0.30169 0.31355,-0.28934 0.54574,-0.55009 0.51596,-0.57946 -0.0298,-0.0294 -0.26848,0.0568 -0.53046,0.1915 -0.44078,0.22664 -0.49674,0.23171 -0.75015,0.0679 -0.15062,-0.0974 -0.27385,-0.27761 -0.27385,-0.40059 0,-0.14502 -0.0773,-0.22359 -0.21992,-0.22359 -0.34143,0 -0.58896,-0.12458 -0.50712,-0.25522 0.0408,-0.0651 -0.0129,-0.18126 -0.11943,-0.25807 -0.24382,-0.17589 -0.91181,-0.0421 -1.23629,0.24757 -0.23049,0.20579 -1.10712,0.45463 -1.99374,0.56593 -0.33923,0.0426 -0.50592,0.01 -0.61594,-0.12091 -0.10137,-0.12049 -0.34366,-0.17987 -0.7387,-0.18104 -0.65096,-0.002 -0.94996,-0.12559 -0.81695,-0.33791 0.0841,-0.1342 0.7039,-0.10989 1.43288,0.0562 0.241,0.0549 0.314,0.006 0.45859,-0.30631 0.0946,-0.20439 0.24936,-0.37162 0.34395,-0.37162 0.0946,0 0.21566,-0.0679 0.26905,-0.15089 0.0619,-0.0962 0.20183,-0.12495 0.38609,-0.0793 0.1791,0.0443 0.36018,0.0104 0.47616,-0.0893 0.26406,-0.2269 0.99787,-0.33647 1.27469,-0.19031 0.19628,0.10362 0.2309,0.0874 0.2309,-0.10827 0,-0.30197 -0.39353,-0.68259 -0.70572,-0.68259 -0.24233,0 -1.01399,-0.4998 -1.01399,-0.65675 0,-0.0439 0.16767,-0.14733 0.37261,-0.22994 0.20493,-0.0826 0.49187,-0.20709 0.63763,-0.27665 0.20386,-0.0973 0.32294,-0.0907 0.51592,0.0286 0.27396,0.16935 1.24139,0.23361 1.14249,0.0759 -0.0336,-0.0536 0.01,-0.1419 0.0969,-0.1962 0.22412,-0.14004 0.76037,-0.1256 0.85344,0.023 0.0547,0.0873 0.1094,0.0788 0.18092,-0.0282 0.16214,-0.24275 0.46461,0.22305 0.38296,0.58976 -0.0823,0.36974 0.15853,0.58696 0.59579,0.53735 0.72337,-0.0821 0.23135,-0.98277 -0.76596,-1.40217 -0.34681,-0.14584 -0.54027,-0.26721 -0.42992,-0.26971 0.11033,-0.003 0.20062,-0.057 0.20062,-0.12119 0,-0.17789 -0.35577,-0.27366 -0.45113,-0.12145 -0.0647,0.10329 -0.21377,0.10353 -0.64765,8.6e-4 -0.86415,-0.20412 -0.86943,-0.2063 -0.7934,-0.32766 0.13624,-0.21747 -0.0731,-0.36133 -0.22591,-0.15523 -0.13462,0.18162 -0.17007,0.18356 -0.41892,0.0229 -0.14952,-0.0966 -0.5685,-0.26055 -0.93108,-0.36445 -0.6498,-0.18621 -0.85127,-0.425 -0.47787,-0.56636 0.28689,-0.10859 0.39189,-0.0816 0.39189,0.10101 0,0.23716 0.19537,0.21133 0.42787,-0.0565 0.25168,-0.29 1.00171,-0.31336 1.15899,-0.0361 0.097,0.17097 0.14457,0.1596 0.47308,-0.11309 0.20089,-0.16676 0.45896,-0.3032 0.57349,-0.3032 0.32525,0 0.36464,-0.29525 0.0578,-0.43318 -0.34258,-0.15399 -0.65343,-0.61281 -0.56653,-0.83623 0.0889,-0.22858 0.60345,-0.44968 0.85975,-0.36943 0.1136,0.0356 0.25976,0.21527 0.32481,0.39934 0.1279,0.36199 0.23694,0.41033 0.45044,0.19971 0.106,-0.10456 0.20944,-0.0664 0.45914,0.16965 0.40147,0.37945 0.64955,0.40191 0.55399,0.0501 -0.038,-0.13997 -0.0698,-0.28911 -0.0707,-0.33144 -8.7e-4,-0.0423 -0.11765,-0.0932 -0.25953,-0.11311 -0.38705,-0.0543 -0.34866,-0.54336 0.0602,-0.76695 0.2823,-0.15438 0.33057,-0.15486 0.42818,-0.004 0.0605,0.0933 0.11081,0.30961 0.11177,0.48068 0.002,0.33934 0.16512,0.41744 0.27611,0.13212 0.11885,-0.30553 0.0771,-0.66498 -0.10738,-0.92483 -0.14278,-0.2011 -0.15362,-0.3348 -0.0561,-0.69214 0.17127,-0.62746 0.41579,-0.6736 0.88599,-0.1672 0.41507,0.44706 0.42291,0.75594 0.0177,0.69793 -0.13645,-0.0195 -0.27184,0.0332 -0.30087,0.11742 -0.0411,0.11906 0.0836,0.14412 0.56258,0.11311 0.56521,-0.0366 0.61835,-0.0191 0.652,0.21463 0.0202,0.13996 0.11043,0.25447 0.20063,0.25447 0.22039,0 0.21012,0.44205 -0.0122,0.52622 -0.0969,0.0367 -0.25241,0.21207 -0.34555,0.38974 -0.16361,0.31213 -0.15917,0.32557 0.1312,0.39746 0.34469,0.0853 0.50074,-0.0793 0.50346,-0.53113 0.003,-0.41126 0.091,-0.4565 0.53504,-0.27347 0.21424,0.0883 0.46283,0.13281 0.55244,0.0989 0.0896,-0.0339 0.34364,0.0806 0.56455,0.25448 0.30332,0.23877 0.37157,0.3519 0.27882,0.46215 -0.0675,0.0803 -0.21492,0.14599 -0.32749,0.14599 -0.25536,0 -1.37231,0.56365 -1.37231,0.69251 0,0.0522 0.14187,0.12556 0.31528,0.16304 0.17341,0.0375 0.36687,0.0829 0.42993,0.10086 0.28941,0.0826 0.34394,0.0337 0.34394,-0.30795 0,-0.33556 0.0301,-0.36571 0.36465,-0.36571 0.24591,0 0.47758,-0.1066 0.71143,-0.32734 0.32673,-0.30845 0.36236,-0.31728 0.6165,-0.15301 0.19328,0.12493 0.32714,0.14265 0.47231,0.0625 0.25759,-0.1422 0.34164,-0.0593 0.24484,0.2416 -0.0419,0.13015 -0.26585,0.32063 -0.49772,0.42327 l -0.42159,0.18664 0.40127,0.0671 c 0.35781,0.0598 0.39869,0.10238 0.37742,0.39328 -0.0575,0.78677 0.65222,1.04505 1.11396,0.40534 0.13522,-0.18733 0.29034,-0.3135 0.3447,-0.28035 0.0544,0.0331 0.14501,-0.0211 0.20146,-0.12064 0.088,-0.15519 0.13052,-0.13887 0.29899,0.11476 0.18907,0.28465 0.18657,0.30784 -0.0669,0.62318 -0.33175,0.41269 -0.50726,0.48656 -0.79506,0.33462 -0.18764,-0.0991 -0.2826,-0.0673 -0.5306,0.17733 -0.21056,0.20773 -0.37321,0.27686 -0.53701,0.22826 -0.62398,-0.1851 -1.10899,-0.18998 -1.55079,-0.0156 -0.57739,0.22791 -0.70156,0.23077 -0.61733,0.0142 0.12544,-0.32248 -0.35265,-0.17849 -0.65718,0.19793 l -0.29737,0.36758 0.50867,-0.0404 c 0.47741,-0.038 0.50116,-0.0266 0.38654,0.18463 -0.13273,0.24468 -0.36692,0.36483 -0.71111,0.36483 -0.26306,0 -0.29167,0.17484 -0.0439,0.26862 0.15648,0.0592 0.15502,0.0982 -0.0132,0.35139 -0.14548,0.21905 -0.2867,0.28479 -0.61163,0.28479 -0.23236,0 -0.47885,-0.0556 -0.54775,-0.12357 -0.14681,-0.14484 -0.44424,-0.0167 -0.75985,0.32731 -0.15144,0.16511 -0.19672,0.36751 -0.17068,0.76304 l 0.0354,0.53833 0.37335,-0.31083 c 0.2889,-0.24051 0.55924,-0.33386 1.19492,-0.4126 0.81686,-0.10119 1.086,-0.0623 0.79511,0.11515 -0.0837,0.051 -0.10752,0.12007 -0.0529,0.1534 0.10272,0.0626 0.626,-0.1463 0.99628,-0.39776 0.181,-0.12292 0.23646,-0.10701 0.38659,0.11097 0.24978,0.36265 0.63567,0.3169 1.25394,-0.14867 l 0.53537,-0.40314 0.25459,0.31499 c 0.21014,0.25998 0.28446,0.29055 0.4256,0.17499 0.094,-0.0771 0.25179,-0.10942 0.35054,-0.072 0.11067,0.0419 0.23676,-0.0225 0.32873,-0.16771 0.0821,-0.12961 0.21112,-0.23566 0.28681,-0.23566 0.21465,0 0.31254,0.24091 0.14051,0.3458 -0.25786,0.15721 -0.0388,0.2391 0.415,0.15512 0.27796,-0.0514 0.44736,-0.15302 0.48368,-0.29005 0.0812,-0.30632 0.71704,-0.29664 0.71704,0.011 0,0.2918 -0.45218,0.70028 -0.69204,0.62516 -0.10386,-0.0326 -0.48605,0.0751 -0.84931,0.23917 -0.54498,0.24614 -0.82565,0.29803 -1.60521,0.29679 -0.64089,-8.5e-4 -1.05932,-0.06 -1.301,-0.18326 -0.19594,-0.1 -0.43203,-0.18173 -0.52463,-0.18173 -0.23992,0 -0.87326,0.37316 -0.87412,0.51504 -8.7e-4,0.15304 -0.66374,0.7733 -1.01916,0.95374 -0.16167,0.0821 -0.45143,0.11061 -0.70964,0.0699 -0.50463,-0.0796 -0.7336,0.11751 -0.25428,0.21891 0.17598,0.0372 0.43848,0.11507 0.58332,0.17297 0.38617,0.15438 0.96559,0.1221 1.22031,-0.068 0.30416,-0.22695 0.86606,-0.20983 1.04604,0.0319 0.13551,0.18198 0.15708,0.17288 0.26776,-0.11309 0.0662,-0.17107 0.17325,-0.31104 0.23786,-0.31104 0.15626,0 0.15082,0.30564 -0.007,0.40195 -0.0685,0.0418 -0.0986,0.17402 -0.0669,0.29382 0.088,0.33181 -0.34409,0.66145 -0.86695,0.66145 -0.3446,0 -0.43457,0.0404 -0.40831,0.18293 0.0186,0.10061 -0.0695,0.24057 -0.19561,0.31103 -0.1261,0.0704 -0.25047,0.14052 -0.27635,0.15569 -0.0259,0.0152 0.0499,0.13325 0.16836,0.2624 l 0.21542,0.23483 0.29023,-0.34752 c 0.2727,-0.32651 0.3214,-0.34221 0.80615,-0.2597 0.40617,0.0692 0.52348,0.13964 0.55146,0.33136 0.0195,0.13396 0.10983,0.30439 0.20063,0.37873 0.0908,0.0744 0.16509,0.20207 0.16509,0.28385 0,0.10677 0.11314,0.13058 0.40127,0.0845 0.34252,-0.0549 0.40126,-0.0323 0.40126,0.15414 0,0.12011 -0.0458,0.26673 -0.10176,0.32583 -0.056,0.0591 -0.13684,0.22196 -0.1797,0.36193 -0.0707,0.2307 -0.0397,0.25447 0.33106,0.25447 0.22495,0 0.40899,0.0509 0.40899,0.1131 0,0.0623 -0.0774,0.1131 -0.17197,0.1131 -0.28184,0 -0.19533,0.22104 0.14331,0.36618 0.1734,0.0743 0.47493,0.25135 0.67005,0.39342 0.19512,0.14208 0.41816,0.25831 0.49566,0.25831 0.24873,0 0.0739,-0.39452 -0.19137,-0.43187 -0.14067,-0.0198 -0.33096,-0.1419 -0.42286,-0.27133 -0.14601,-0.20565 -0.14614,-0.27528 -8.6e-4,-0.55215 0.0913,-0.17426 0.16607,-0.39653 0.16607,-0.49392 0,-0.25074 0.71013,-0.56016 1.07706,-0.4693 0.36158,0.0896 0.37776,0.25481 0.0578,0.59077 l -0.24089,0.25296 0.34984,0.17847 c 0.1924,0.0982 0.4215,0.17846 0.50909,0.17846 0.0876,0 0.21599,0.12282 0.28531,0.27292 0.11179,0.24204 0.17973,0.26582 0.60041,0.21015 0.41099,-0.0544 0.46935,-0.0358 0.43693,0.13884 -0.0267,0.14404 0.0772,0.24031 0.36385,0.33717 0.56554,0.19107 0.51413,0.43512 -0.11465,0.5441 -0.28376,0.0491 -0.68186,0.11816 -0.88467,0.15331 -0.20991,0.0364 -0.60143,-0.0143 -0.90894,-0.1177 -0.29708,-0.0999 -0.69087,-0.18157 -0.87507,-0.18157 -0.1842,0 -0.62643,-0.17579 -0.98274,-0.39063 -0.71848,-0.43321 -2.7542,-1.07017 -3.44209,-1.07699 -0.23396,-0.002 -0.25116,0.0221 -0.123,0.17442 0.0819,0.0974 0.30056,0.25442 0.4858,0.34892 0.22879,0.11671 0.29933,0.20878 0.21995,0.28709 -0.19254,0.18995 0.24741,1.012 0.62516,1.16812 0.27602,0.11408 0.38667,0.10008 0.73148,-0.0925 0.36506,-0.20392 0.44031,-0.21084 0.74185,-0.0682 0.18457,0.0873 0.39692,0.28012 0.47188,0.42849 0.075,0.14837 0.20545,0.31765 0.28998,0.37618 0.11998,0.0831 0.12225,0.11902 0.0104,0.1638 -0.0788,0.0316 -0.14331,0.12403 -0.14331,0.2055 0,0.0815 -0.0816,0.17902 -0.18135,0.21678 -0.27189,0.10292 -0.30843,0.0857 -0.23258,-0.10922 0.0491,-0.12624 0.011,-0.16682 -0.13105,-0.13982 -0.1104,0.021 -0.20023,0.13883 -0.20023,0.26269 0,0.17413 0.0901,0.23308 0.40081,0.26216 0.22044,0.0206 0.45348,0.0806 0.51787,0.13336 0.0697,0.057 0.2256,-0.0154 0.3851,-0.1789 0.26484,-0.27145 0.81722,-0.38069 0.81722,-0.16162 0,0.0623 0.0774,0.1131 0.17197,0.1131 0.10075,0 0.17197,0.10304 0.17197,0.24881 0,0.19354 0.0306,0.21866 0.13757,0.11311 0.33252,-0.32804 0.942,-0.009 1.02835,0.53804 0.0548,0.34728 0.26717,0.28167 0.26717,-0.0826 0,-0.25575 0.0563,-0.31482 0.32962,-0.34563 0.30885,-0.0348 0.32635,-0.0152 0.27781,0.31103 -0.0618,0.41516 0.0519,0.45445 0.22575,0.078 0.10804,-0.23392 0.17583,-0.25951 0.50564,-0.19088 0.29203,0.0608 0.37269,0.13039 0.34574,0.29842 -0.073,0.455 -0.4652,0.63067 -1.39148,0.62325 -1.16,-0.009 -1.75216,0.0362 -1.93529,0.14852 -0.0974,0.0598 -0.25154,8.5e-4 -0.42993,-0.16463 -0.32917,-0.30506 -0.35218,-0.44038 -0.0775,-0.4558 0.24033,-0.0135 -0.25723,-0.18631 -0.58643,-0.20366 -0.19974,-0.0106 -0.2019,0.007 -0.0328,0.26119 0.48441,0.72934 0.65992,0.82756 1.42638,0.79822 0.50903,-0.0195 0.77025,0.0208 0.88817,0.13721 0.11151,0.10999 0.25293,0.13586 0.42535,0.0778 0.14207,-0.0478 0.28411,-0.0939 0.31564,-0.10232 0.0315,-0.009 0.14616,-0.054 0.25474,-0.10127 0.21505,-0.0936 0.89173,0.15082 0.89173,0.32211 0,0.0577 -0.0812,0.19333 -0.18034,0.30145 -0.16516,0.18003 -0.16133,0.20253 0.0455,0.26728 0.12418,0.0389 0.29562,0.0562 0.38098,0.0386 0.0854,-0.0177 0.15517,0.0442 0.15517,0.13747 0,0.0982 -0.20543,0.23971 -0.48725,0.33582 -0.26798,0.0914 -0.48724,0.23135 -0.48724,0.31102 0,0.10132 -0.2025,0.14487 -0.67356,0.14487 -0.6646,0 -0.67452,0.005 -0.74619,0.35827 -0.0905,0.44655 0.21639,0.77275 0.72706,0.77275 0.20972,0 0.34874,0.0586 0.34874,0.14703 0,0.27754 -0.24666,0.39464 -0.70389,0.33414 -0.36447,-0.0482 -0.49818,-0.0125 -0.68175,0.18181 -0.24633,0.26085 -0.11928,0.3233 0.22553,0.11087 0.30711,-0.18921 0.58378,-0.0515 0.50367,0.25073 -0.0687,0.25906 -0.28504,0.264 -1.64858,0.0377 -0.34775,-0.0577 -0.42275,-0.0331 -0.47263,0.15505 -0.0548,0.20683 -0.10832,0.21533 -0.71106,0.11289 -0.35847,-0.061 -0.67528,-0.0876 -0.70402,-0.0592 -0.10777,0.10632 0.30372,0.87479 0.53335,0.99603 0.18813,0.0993 0.28163,0.0882 0.43915,-0.0525 0.22255,-0.19869 0.8742,-0.2418 0.98486,-0.0651 0.0391,0.0624 0.19694,0.0824 0.35071,0.0443 0.23014,-0.057 0.27959,-0.027 0.27959,0.16923 0,0.16307 -0.0725,0.23847 -0.2293,0.23847 -0.16644,0 -0.22928,0.0754 -0.22928,0.27512 0,0.41856 -0.68145,0.51447 -0.93962,0.13225 -0.0439,-0.0649 -0.11323,-0.085 -0.15414,-0.0447 -0.077,0.076 0.53442,0.48914 1.3267,0.89653 0.53696,0.2761 0.58305,0.43729 0.12503,0.43729 -0.18145,0 -0.39412,0.0764 -0.47262,0.16965 -0.19512,0.23194 -0.41484,0.21282 -0.69155,-0.0602 -0.12813,-0.1264 -0.49747,-0.2793 -0.82075,-0.33978 -0.36447,-0.0682 -0.64867,-0.19573 -0.74805,-0.3357 -0.16982,-0.23919 -0.87628,-0.32145 -1.0044,-0.11694 -0.0436,0.0696 -0.17251,0.0696 -0.35818,0 -0.3926,-0.14726 -0.38974,-0.14863 -0.38974,0.18716 0,0.25172 -0.0386,0.28576 -0.25796,0.22775 -0.14188,-0.0375 -0.29666,-0.0688 -0.34395,-0.0697 -0.20948,-0.004 -0.0529,-0.36593 0.31515,-0.72902 0.47252,-0.46615 0.52015,-0.4229 -1.05006,-0.95348 -0.87137,-0.29444 -1.98797,-0.47147 -1.98797,-0.31519 0,0.0218 0.0473,0.18723 0.10517,0.36759 0.0578,0.18034 0.13621,0.46786 0.17416,0.63893 0.064,0.28856 0.11023,0.31102 0.64004,0.31102 0.60157,0 0.74697,0.16758 0.39527,0.45553 -0.0967,0.0791 -0.15937,0.19253 -0.1393,0.25192 0.0432,0.12796 0.78065,0.41228 1.34691,0.51932 0.25944,0.049 0.44127,0.16547 0.51444,0.32936 0.0958,0.21459 0.2024,0.25349 0.69464,0.25349 0.32278,0 0.68047,0.0717 0.80401,0.1612 0.21465,0.15548 0.21109,0.16553 -0.1002,0.28275 -0.17751,0.0669 -0.35239,0.12156 -0.38863,0.12156 -0.0362,0 -0.12837,0.0844 -0.20474,0.18733 -0.12697,0.17131 -0.54071,0.22706 -0.97909,0.13196 -0.0926,-0.0201 -0.16846,0.0375 -0.16846,0.12801 0,0.0906 0.12516,0.1937 0.27812,0.22932 0.27942,0.0651 0.47961,0.34128 0.24735,0.34128 -0.24602,0 -0.11695,0.2241 0.23144,0.40183 0.34035,0.17362 0.36773,0.17023 0.63661,-0.0789 0.1681,-0.1558 0.31307,-0.21523 0.3609,-0.14795 0.14327,0.20149 0.73129,0.39933 0.96729,0.32543 0.13895,-0.0435 0.26957,-0.0112 0.32902,0.0813 0.18749,0.29191 0.10614,0.43622 -0.24589,0.43622 -0.19139,0 -0.47288,0.0807 -0.62553,0.17941 -0.1622,0.10485 -0.33918,0.14156 -0.42588,0.0883 -0.0816,-0.0501 -0.26012,-0.0769 -0.39673,-0.0595 -0.14373,0.0183 -0.29604,-0.0524 -0.36151,-0.1678 -0.0885,-0.15593 -0.14812,-0.17079 -0.27351,-0.0682 -0.0882,0.0722 -0.27404,0.10198 -0.41297,0.0661 -0.31175,-0.0804 -0.68552,0.17594 -0.4584,0.31441 0.11488,0.07 0.11717,0.1203 0.0103,0.22574 -0.10689,0.10544 -0.17805,0.10242 -0.31974,-0.0136 -0.13297,-0.10888 -0.14569,-0.17151 -0.047,-0.23167 0.09,-0.0548 0.0538,-0.10794 -0.10818,-0.15865 -0.13389,-0.0419 -0.29328,-0.0458 -0.35421,-0.009 -0.0609,0.0372 -0.1917,-0.0868 -0.29059,-0.27545 -0.0989,-0.18867 -0.24955,-0.34301 -0.33479,-0.34301 -0.0853,0 -0.22385,-0.0819 -0.30801,-0.1819 -0.12986,-0.15435 -0.12088,-0.20507 0.0593,-0.33505 0.19999,-0.14426 0.20125,-0.16981 0.0217,-0.44017 -0.28798,-0.43358 -0.55753,-0.38087 -0.46771,0.0915 0.0897,0.47195 -0.18691,0.79854 -0.60901,0.71894 l -0.28194,-0.0532 0.045,4.78708 c 0.0247,2.63291 0.0751,4.81684 0.11198,4.85318 0.0368,0.0363 3.54376,0.0652 7.79314,0.064 4.24938,-9.8e-4 7.79102,0.039 7.87031,0.0891 0.11384,0.0719 0.13796,1.61256 0.11465,7.32236 l -0.0295,7.23128 -33.04719,0.0285 c -26.3997398,0.0228 -33.04768981,-10e-6 -33.04968981,-0.1131 z M 65.591626,284.67848 v -6.78641 l -18.59274,0.0286 -18.59274,0.0286 -0.7705,1.8096 c -1.02704,2.41216 -0.95421,2.23861 -1.42395,3.39305 -0.22782,0.55985 -0.45974,1.11969 -0.51539,1.2441 -0.26939,0.60213 -0.49353,1.13004 -1.03243,2.43168 -1.12701,2.72208 -0.93808,2.42705 -1.57866,2.46521 l -0.5629,0.0335 -0.46575,-0.99491 c -0.25616,-0.54719 -0.68383,-1.50384 -0.95037,-2.12589 -0.26655,-0.62206 -0.64896,-1.48728 -0.84979,-1.92272 -0.20084,-0.43544 -0.92802,-2.0517 -1.61597,-3.59169 l -1.25079,-2.79997 -8.4302798,0.029 -8.43029001,0.029 -0.026,6.65974 c -0.0143,3.66284 0.002,6.70385 0.0354,6.75779 0.0344,0.0549 14.33865981,0.0981 32.55727981,0.0981 h 32.49585 z m -62.4267798,4.38301 c -0.0345,-0.13997 -0.0484,-2.06127 -0.0308,-4.26957 l 0.032,-4.0151 2.29295,0.003 c 2.13571,0.003 2.33197,0.0201 2.862,0.2588 0.70848,0.31905 0.94166,0.52474 1.23272,1.08735 0.5164698,0.99829 0.0531,2.17565 -1.09399,2.77952 -0.2954,0.1555 -0.5174,0.33364 -0.49332,0.39584 0.0791,0.20429 2.6088398,3.50525 2.7153798,3.54313 0.0929,0.0331 0.86275,-1.47597 2.58164,-5.06025 0.31067,-0.6478 0.79701,-1.64025 1.08076,-2.20546 l 0.51592,-1.02766 h 0.45858 c 0.45369,0 0.46289,0.009 0.85987,0.79708 0.22069,0.4384 0.55208,1.12548 0.73641,1.52686 0.18432,0.40138 0.63575,1.35934 1.00316,2.12877 0.36741,0.76946 0.66803,1.41542 0.66803,1.43548 0,0.02 0.28541,0.63343 0.63426,1.36305 0.48395,1.01222 0.59942,1.34894 0.48725,1.42093 -0.0809,0.0519 -0.58009,0.0814 -1.1094,0.0655 -0.71232,-0.0214 -0.98798,-0.0729 -1.06088,-0.19851 -0.0542,-0.0933 -0.30232,-0.61498 -0.55144,-1.15929 l -0.45296,-0.98963 h -1.61336 -1.61336 l -0.4961,1.01466 c -0.27285,0.55807 -0.56156,1.09247 -0.64154,1.18757 -0.11852,0.14086 -0.45614,0.17258 -1.82248,0.17117 -0.9223598,-8.6e-4 -1.7323998,-0.0391 -1.8000798,-0.0848 -0.0677,-0.0457 -0.75249,-0.91015 -1.52178,-1.92098 -0.76928,-1.01084 -1.47487,-1.8379 -1.56798,-1.8379 -0.14264,0 -0.16928,0.30261 -0.16928,1.92272 v 1.92272 h -1.02965 c -0.97273,0 -1.03311,-0.0141 -1.09246,-0.25448 z m 12.8989798,-3.08926 c 0,-0.0351 -0.13527,-0.35319 -0.3006,-0.70688 -0.16533,-0.3537 -0.39566,-0.85939 -0.51184,-1.12377 -0.11618,-0.26437 -0.23974,-0.48067 -0.27457,-0.48067 -0.0584,0 -0.94784,1.72534 -1.12231,2.17719 -0.0696,0.18031 0.0253,0.19793 1.06644,0.19793 0.62859,0 1.14288,-0.0287 1.14288,-0.0638 z m -9.2764198,-1.66439 c 0.21334,-0.14182 0.45531,-0.38359 0.53771,-0.53723 0.20105,-0.37487 0.116,-1.24865 -0.15664,-1.60928 -0.26206,-0.34665 -0.8736,-0.56871 -1.42419,-0.51715 l -0.40001,0.0375 -0.0321,1.44203 -0.0321,1.44204 h 0.55971 c 0.39278,0 0.6754,-0.0769 0.94759,-0.25787 z m 21.6665998,4.84826 c -0.0874,-0.10393 -0.11658,-1.40386 -0.0957,-4.26438 l 0.0301,-4.1149 3.23879,-0.0301 3.2388,-0.0301 v 0.39763 0.39761 h -2.12098 -2.12098 v 1.35721 1.35721 h 1.77704 1.77703 v 0.39586 0.39585 h -1.77703 -1.77704 v 1.63997 1.63996 h 2.12098 2.12098 v 0.50835 0.50835 l -3.14313,-0.005 c -2.46131,-0.003 -3.17042,-0.037 -3.26891,-0.15408 z m 8.13175,-4.14995 v -4.28587 l 0.65923,0.002 c 0.36258,8.6e-4 0.71252,0.0391 0.77764,0.0848 0.0651,0.0457 0.78636,0.82108 1.60272,1.72306 0.81637,0.90198 1.67375,1.84355 1.90529,2.09238 0.23154,0.24881 0.60543,0.65598 0.83088,0.9048 l 0.4099,0.45241 0.003,-2.6296 0.003,-2.62961 h 0.68789 0.68789 v 4.29784 4.29785 h -0.50356 c -0.56281,0 -0.095,0.4585 -4.21044,-4.12637 l -1.41966,-1.58158 -0.0573,2.8257 -0.0573,2.8257 -0.65923,0.0163 -0.65923,0.0164 z m 9.63041,0.0177 v -4.30349 l 0.65923,0.002 c 0.36257,8.5e-4 0.71425,0.0391 0.78152,0.0848 0.0673,0.0457 0.58311,0.59205 1.14631,1.21412 0.56322,0.62204 1.14287,1.25824 1.28812,1.41375 0.14524,0.15552 0.71283,0.78033 1.26128,1.38849 l 0.9972,1.10573 0.0308,-2.60432 0.0308,-2.60433 h 0.68577 0.68577 v 4.29784 4.29786 h -0.50511 -0.50509 l -1.63921,-1.83789 c -0.90157,-1.01085 -2.05434,-2.29124 -2.56172,-2.84531 l -0.92252,-1.00741 -0.0573,2.81703 -0.0573,2.81703 -0.65922,0.0339 -0.65922,0.0339 z m 8.59858,4.16943 c 0,-0.0503 0.41581,-0.94666 0.92402,-1.99189 0.50821,-1.04523 1.26919,-2.61169 1.69106,-3.48104 1.62611,-3.35093 1.50777,-3.16518 2.04098,-3.20365 0.43462,-0.0314 0.48534,-0.005 0.64945,0.3393 0.66054,1.3853 1.2294,2.60529 1.2294,2.63662 0,0.0203 0.23631,0.53727 0.52514,1.14883 0.28883,0.61156 0.59424,1.26461 0.6787,1.45122 0.26874,0.59382 1.09917,2.36297 1.2673,2.6999 0.0891,0.17862 0.13407,0.36948 0.0998,0.42412 -0.0767,0.12236 -1.8868,0.1295 -2.08033,0.008 -0.077,-0.0482 -0.374,-0.58186 -0.6601,-1.18583 l -0.52017,-1.09813 h -1.60423 -1.60423 l -0.52131,1.04106 c -0.28673,0.57259 -0.57266,1.10208 -0.6354,1.17667 -0.12696,0.15091 -1.48011,0.18257 -1.48011,0.0346 z m 5.33051,-3.38524 c -0.17141,-0.5328 -0.99399,-2.14704 -1.09406,-2.14704 -0.06,0 -0.10914,0.0491 -0.10914,0.10921 0,0.0601 -0.23216,0.5763 -0.51591,1.14719 -0.28375,0.57086 -0.51591,1.05612 -0.51591,1.07833 0,0.0222 0.51938,0.0404 1.1542,0.0404 1.10521,0 1.15109,-0.01 1.08082,-0.22808 z m -43.12179,-12.68167 c -0.23476,-0.25591 -0.3717,-0.26626 -0.4617,-0.0349 -0.0931,0.23939 0.30856,0.52798 0.5078,0.36485 0.11734,-0.0961 0.10815,-0.16181 -0.0461,-0.32995 z m 0.41614,-1.0017 c 0,-0.0623 -0.0516,-0.1131 -0.11464,-0.1131 -0.0631,0 -0.11465,0.0509 -0.11465,0.1131 0,0.0622 0.0516,0.1131 0.11465,0.1131 0.0631,0 0.11464,-0.0509 0.11464,-0.1131 z m -0.69636,-0.51901 c -0.13519,-0.16071 -0.45012,-0.22174 -0.45012,-0.0872 0,0.12139 0.39261,0.36372 0.49156,0.30339 0.0511,-0.0311 0.0324,-0.1284 -0.0414,-0.21616 z m 1.38424,0.0666 c -0.22227,-0.1417 -0.34394,-0.1417 -0.34394,0 0,0.0623 0.11608,0.11232 0.25796,0.11136 0.20859,-9.8e-4 0.22504,-0.0227 0.086,-0.11136 z m -4.28342,-0.16964 c 0.0363,-0.0933 0.13786,-0.16965 0.2257,-0.16965 0.23928,0 0.19236,-0.19141 -0.0631,-0.25731 -0.25016,-0.0645 -0.57854,0.2357 -0.49792,0.45523 0.071,0.19341 0.25509,0.1779 0.33529,-0.0282 z m 3.0223,-0.50896 c 0,-0.12441 -0.0516,-0.22621 -0.11465,-0.22621 -0.0631,0 -0.11464,0.1018 -0.11464,0.22621 0,0.1244 0.0516,0.2262 0.11464,0.2262 0.0631,0 0.11465,-0.1018 0.11465,-0.2262 z m -1.94901,-0.75678 c 0,-0.29191 -0.007,-0.29538 -0.16832,-0.0848 -0.21662,0.28254 -0.21762,0.3892 -0.003,0.3892 0.11027,0 0.17197,-0.10923 0.17197,-0.30437 z m -0.0363,-1.30026 c -0.0366,-0.0903 -0.0638,-0.0634 -0.0693,0.0684 -0.005,0.11923 0.0221,0.18602 0.0602,0.14844 0.0381,-0.0376 0.0422,-0.13513 0.009,-0.21678 z m -0.14054,-0.31027 c 0.12058,-0.19246 -0.16588,-0.25136 -0.34811,-0.0716 -0.16261,0.16042 -0.15783,0.17687 0.0514,0.17687 0.1269,0 0.2604,-0.0474 0.29668,-0.10529 z m -0.62566,-0.57333 c 0.10403,-0.19175 0.0872,-0.22619 -0.11062,-0.22619 -0.12833,0 -0.23333,0.0213 -0.23333,0.0472 0,0.026 -0.0313,0.12781 -0.0696,0.22621 -0.10406,0.26752 0.26569,0.22523 0.41354,-0.0473 z m 41.50245,0 c 0,-0.0622 -0.10318,-0.1131 -0.22929,-0.1131 -0.12611,0 -0.2293,0.0509 -0.2293,0.1131 0,0.0623 0.10319,0.11311 0.2293,0.11311 0.12611,0 0.22929,-0.0509 0.22929,-0.11311 z m -2.09232,-0.18438 c 0.14187,-0.0375 0.25795,-0.11316 0.25795,-0.16812 0,-0.15736 -0.39232,-0.11664 -0.63731,0.0662 -0.24695,0.18426 -0.0908,0.22625 0.37936,0.10196 z m -2.72288,-1.12258 c 0,-0.19425 -0.057,-0.20176 -0.35149,-0.0463 -0.15016,0.0793 -0.22059,0.23446 -0.21813,0.48068 l 0.003,0.3636 0.283,-0.31734 c 0.15565,-0.17453 0.283,-0.39083 0.283,-0.48067 z m 1.37577,-0.1772 c 0,-0.20349 -0.0269,-0.218 -0.17683,-0.0953 -0.26475,0.21677 -0.43351,-0.006 -0.28886,-0.3814 0.1119,-0.29035 0.10176,-0.30117 -0.28236,-0.30117 -0.66199,0 -0.49405,0.50425 0.28946,0.86911 0.40659,0.18935 0.45859,0.179 0.45859,-0.0913 z m -6.99353,-0.21236 c 0,-0.0623 -0.10318,-0.11309 -0.22929,-0.11309 -0.12612,0 -0.2293,0.0509 -0.2293,0.11309 0,0.0622 0.10318,0.11311 0.2293,0.11311 0.12611,0 0.22929,-0.0509 0.22929,-0.11311 z m 1.83437,-0.3393 c 0,-0.0623 -0.10318,-0.11309 -0.2293,-0.11309 -0.12611,0 -0.22929,0.0509 -0.22929,0.11309 0,0.0623 0.10318,0.11312 0.22929,0.11312 0.12612,0 0.2293,-0.0509 0.2293,-0.11312 z M 7.9238562,265.1245 c 0,-0.0555 -0.0748,-0.1293 -0.16613,-0.1639 -0.11104,-0.042 -0.14499,-0.009 -0.10238,0.10101 0.0696,0.17889 0.26851,0.22549 0.26851,0.0628 z m 39.8695298,-0.52969 c -0.11284,-0.11132 -0.31609,0.0596 -0.31609,0.26575 0,0.17264 0.0151,0.17233 0.19381,-0.004 0.1066,-0.10516 0.16162,-0.22296 0.12228,-0.26177 z m -33.67855,0.17828 c 0,-0.0623 -0.0516,-0.1131 -0.11465,-0.1131 -0.0631,0 -0.11465,0.0509 -0.11465,0.1131 0,0.0622 0.0516,0.11311 0.11465,0.11311 0.0631,0 0.11465,-0.0509 0.11465,-0.11311 z m 36.39019,0.0167 c 0.0332,-0.0531 -0.0137,-0.19302 -0.10423,-0.31104 -0.15602,-0.20332 -0.16485,-0.19826 -0.16831,0.0965 -0.003,0.29852 0.14615,0.41635 0.27254,0.2146 z M 7.0386562,263.38743 c -0.0767,-1.17952 -0.21226,-1.43861 -0.64998,-1.24186 -0.36877,0.16576 -0.4077,0.63605 -0.0699,0.84419 0.26697,0.16447 0.30978,0.36772 0.0573,0.27215 -0.12641,-0.0478 -0.17197,0.0149 -0.17197,0.23699 0,0.32351 0.66954,1.11396 0.81606,0.96341 0.0455,-0.0468 0.0538,-0.53047 0.0185,-1.07488 z m 0.54126,0.82019 c 0,-0.0622 -0.0516,-0.11311 -0.11465,-0.11311 -0.0631,0 -0.11465,0.0509 -0.11465,0.11311 0,0.0622 0.0516,0.11309 0.11465,0.11309 0.0631,0 0.11465,-0.0509 0.11465,-0.11309 z m 6.9361898,0 c 0.0389,-0.0622 -0.007,-0.11311 -0.10112,-0.11311 -0.0946,0 -0.20385,0.0509 -0.24283,0.11311 -0.0389,0.0622 0.007,0.11309 0.10112,0.11309 0.0946,0 0.20386,-0.0509 0.24283,-0.11309 z m 33.30514,-0.22621 c 0,-0.0623 -0.0516,-0.1131 -0.11465,-0.1131 -0.0631,0 -0.11465,0.0509 -0.11465,0.1131 0,0.0623 0.0516,0.1131 0.11465,0.1131 0.0631,0 0.11465,-0.0509 0.11465,-0.1131 z M 7.8564262,263.68385 c 0.0435,-0.11185 -0.0532,-0.34553 -0.24569,-0.59377 l -0.31744,-0.40933 -0.036,0.43203 c -0.0369,0.4417 0.12171,0.75553 0.38177,0.75553 0.0801,0 0.17796,-0.083 0.21742,-0.18446 z M 50.592756,262.9136 c -0.15828,-0.58384 -0.36391,-0.48285 -0.36391,0.17872 0,0.59789 8.6e-4,0.59924 0.22685,0.37627 0.17679,-0.1744 0.20703,-0.29687 0.13706,-0.55499 z m -45.3667798,0.20702 c 0.16981,-0.16753 0.16817,-0.19456 -0.0205,-0.33571 -0.11284,-0.0845 -0.24385,-0.15513 -0.29114,-0.15711 -0.10644,-0.005 -0.11441,0.49616 -0.01,0.59961 0.10412,0.10271 0.11117,0.10037 0.32117,-0.10679 z m 50.6352298,-0.23328 c 0.14127,-0.16994 0.12807,-0.18165 -0.12927,-0.11464 -0.15764,0.041 -0.32835,0.0753 -0.37937,0.0762 -0.051,8.5e-4 -0.0609,0.0525 -0.0219,0.11465 0.10726,0.1712 0.35437,0.13572 0.53053,-0.0762 z m -2.07828,-0.0405 c 0,-0.0642 -0.11608,-0.16277 -0.25796,-0.21903 -0.14188,-0.0562 -0.19347,-0.10552 -0.11465,-0.10946 0.28947,-0.0145 0.13229,-0.36244 -0.22929,-0.50761 -0.40176,-0.16131 -2.83754,-0.3202 -2.83754,-0.1851 0,0.17539 0.55777,0.34681 1.48742,0.45715 0.53433,0.0634 1.00806,0.11529 1.05276,0.11529 0.0447,0 0.11298,0.0985 0.15174,0.21903 0.0609,0.18931 0.16729,0.24254 0.66153,0.33108 0.0473,0.009 0.086,-0.0372 0.086,-0.10135 z m 0.51642,-0.56266 c 0.0393,-0.0626 -0.0115,-0.14528 -0.11283,-0.18363 -0.21951,-0.0831 -0.34185,0.009 -0.23633,0.1769 0.0952,0.15196 0.25622,0.15507 0.34916,0.007 z m 0.95007,-0.0717 c 0.15798,-0.0417 0.25052,-0.14257 0.23216,-0.25293 -0.0168,-0.10093 0.01,-0.24713 0.0594,-0.32489 0.0508,-0.0799 0.0371,-0.14139 -0.0316,-0.14139 -0.0668,0 -0.12141,-0.0509 -0.12141,-0.11309 0,-0.0623 0.19346,-0.11713 0.42992,-0.12204 0.23646,-0.005 0.35254,-0.0364 0.25796,-0.07 -0.0946,-0.0335 -0.41932,-0.21439 -0.72163,-0.40192 -0.49153,-0.30491 -0.6005,-0.33039 -1.0303,-0.24095 -0.30203,0.0628 -0.49424,0.16975 -0.51726,0.28765 -0.0462,0.23658 0.68209,0.96579 1.03195,1.03327 l 0.26274,0.0507 -0.25667,0.0838 c -0.14117,0.0461 -0.22841,0.12888 -0.19387,0.18402 0.0732,0.11682 0.23336,0.12424 0.59858,0.0277 z m -8.72034,-0.44823 c -0.0381,-0.0376 -0.13698,-0.0416 -0.21974,-0.009 -0.0915,0.0361 -0.0643,0.0629 0.0693,0.0684 0.12086,0.005 0.18858,-0.0218 0.15048,-0.0594 z m 7.3685,-0.27098 c 0,-0.0623 -0.21205,-0.32228 -0.47123,-0.57796 -0.43065,-0.42484 -0.5088,-0.45893 -0.90767,-0.39601 -0.29923,0.0472 -0.45161,0.0245 -0.48464,-0.0724 -0.0375,-0.10998 -0.0904,-0.10688 -0.2388,0.014 -0.4321,0.35188 -0.0224,0.99061 0.68121,1.06206 0.90108,0.0914 1.42113,0.0806 1.42113,-0.0297 z m 3.32478,0 c 0,-0.0623 -0.0903,-0.11231 -0.20063,-0.11137 -0.17146,9.9e-4 -0.17563,0.0177 -0.0287,0.11137 0.21637,0.13795 0.2293,0.13795 0.2293,0 z m -12.35728,-0.97419 c 0.10816,-0.13147 0.36612,-0.26729 0.57324,-0.30183 0.20713,-0.0345 0.67685,-0.1951 1.04383,-0.35681 0.49359,-0.2175 0.65662,-0.34498 0.62649,-0.48987 -0.0493,-0.23691 -0.55507,-0.21439 -0.95234,0.0424 -0.20823,0.1346 -0.27171,0.13903 -0.31318,0.0219 -0.0741,-0.2094 -0.54412,0.21855 -0.54412,0.49542 0,0.14427 -0.10875,0.23296 -0.34208,0.279 -0.18815,0.0371 -0.31454,0.11145 -0.28088,0.16517 0.0337,0.0538 -0.17355,0.26091 -0.46046,0.4604 -0.2869,0.19951 -0.52164,0.40455 -0.52164,0.45566 0,0.13161 0.93484,-0.4841 1.17114,-0.77136 z m 6.26203,0.66317 c 0.15212,-0.29008 0.0739,-0.56931 -0.22924,-0.81853 -0.40994,-0.33701 -0.66902,-0.29378 -0.66902,0.11165 0,0.18662 0.0571,0.33931 0.12691,0.33931 0.0715,0 0.0948,0.0826 0.0534,0.18888 -0.14059,0.36142 0.53403,0.52933 0.71791,0.17869 z m 6.75453,-0.16966 c -0.0722,-0.214 -0.42998,-0.24442 -0.42998,-0.0365 0,0.10492 0.098,0.17795 0.23885,0.17795 0.14009,0 0.21912,-0.0585 0.19113,-0.14138 z m -4.14915,-1.05839 0.007,-0.44582 -0.52149,0.0594 c -0.67091,0.0764 -0.72897,0.31846 -0.15353,0.64016 0.23757,0.13281 0.48354,0.23037 0.5466,0.2168 0.063,-0.0135 0.11775,-0.2253 0.12153,-0.4705 z m -48.3595398,0.15046 c 0.1886,-0.14396 0.18396,-0.42099 -0.007,-0.42099 -0.20789,0 -0.67157,0.44305 -0.59373,0.5673 0.0674,0.10754 0.36232,0.0357 0.60078,-0.14631 z m 50.8877898,-0.70728 c 0.19147,-0.28828 0.15998,-0.47612 -0.0576,-0.34348 -0.0645,0.0394 -0.0882,0.14621 -0.0527,0.23753 0.0468,0.12038 -0.0195,0.16603 -0.24107,0.16603 -0.17458,0 -0.27527,0.0485 -0.2348,0.1131 0.12509,0.19967 0.39059,0.12123 0.58613,-0.17318 z m 2.63193,-0.0657 c 0.0988,-0.15775 -0.1996,-0.35246 -0.33518,-0.2187 -0.11029,0.10879 -0.004,0.34445 0.15529,0.34445 0.0556,0 0.13656,-0.0566 0.17989,-0.12575 z m -4.03492,-0.19068 c 0.0945,-0.15086 -0.083,-0.32316 -0.41559,-0.40347 -0.3817,-0.0921 -0.41331,0.0738 -0.0605,0.31763 0.28633,0.19784 0.39376,0.21722 0.47607,0.0858 z m -2.83337,-0.19928 c 0.0854,-0.21967 -0.49474,-0.8415 -0.78515,-0.8415 -0.28653,0 -0.26418,0.0774 0.16476,0.57045 0.41805,0.48054 0.52135,0.52567 0.62039,0.27105 z m 1.8732,-0.0458 c 0,-0.12396 -0.34783,-0.32546 -0.78986,-0.45758 -0.16462,-0.0492 -0.49802,-0.1737 -0.74092,-0.27666 -0.30178,-0.12793 -0.42698,-0.14388 -0.39537,-0.0503 0.0406,0.12012 1.61397,0.88136 1.84016,0.89031 0.0473,0.002 0.086,-0.0457 0.086,-0.10572 z m 5.9354,-0.32208 c 0.0252,-0.0746 -0.0592,-0.1343 -0.18987,-0.1343 -0.16487,0 -0.21495,0.0522 -0.1674,0.17442 0.0751,0.19304 0.28651,0.16931 0.35727,-0.0402 z M 4.9762362,258.32643 c 0.0359,-0.13533 0.15638,-0.22619 0.29999,-0.22619 0.19692,0 0.24003,-0.0696 0.24003,-0.38765 0,-0.36976 -0.29775,-0.73719 -0.7223,-0.89134 -0.10562,-0.0384 -0.10429,-0.0848 0.006,-0.19981 0.11146,-0.11657 0.17388,-0.11971 0.28089,-0.0141 0.20971,0.20689 0.43566,0.16203 0.43566,-0.0865 0,-0.12222 -0.112,-0.28135 -0.24888,-0.35362 -0.20464,-0.10804 -0.27462,-0.0967 -0.39364,0.0639 -0.0796,0.10741 -0.19622,0.16391 -0.25911,0.12558 -0.17355,-0.10582 -0.28226,0.14907 -0.13715,0.32156 0.0954,0.11344 0.0876,0.16657 -0.0311,0.21153 -0.37686,0.14266 -0.31782,1.06943 0.094,1.47569 0.24972,0.24635 0.36294,0.23622 0.43589,-0.039 z m 50.3772698,-0.60605 c 0.13866,-0.11785 0.32785,-0.18559 0.42043,-0.15055 0.0926,0.035 0.19361,-9.9e-4 0.22452,-0.0808 0.0801,-0.20587 -0.10092,-0.45115 -0.26093,-0.35359 -0.0741,0.0452 -0.23092,-0.004 -0.34854,-0.1088 -0.13321,-0.11894 -0.30178,-0.1634 -0.44704,-0.11791 -0.12824,0.0402 -0.34487,0.014 -0.48138,-0.058 -0.14766,-0.0779 -0.27713,-0.0886 -0.31962,-0.0263 -0.20569,0.30175 -0.49771,0.23979 -0.99315,-0.21073 l -0.51134,-0.46499 v 0.30071 c 0,0.16539 0.0774,0.33001 0.17197,0.36581 0.18652,0.0706 0.23955,0.38021 0.0651,0.38021 -0.0588,0 -0.21759,-0.15346 -0.35297,-0.34102 -0.45151,-0.62552 -1.01554,-0.79209 -1.8485,-0.54589 -0.41303,0.12207 -0.44323,0.16016 -0.44323,0.55883 0,0.23531 0.0555,0.46165 0.12328,0.50299 0.0678,0.0413 0.52977,0.10963 1.02658,0.15175 0.7061,0.0599 0.96237,0.13133 1.1739,0.32737 0.1663,0.15412 0.4224,0.25324 0.66447,0.25716 0.21663,0.003 0.57445,0.0692 0.79514,0.14578 0.42328,0.14705 0.64636,0.0586 1.34129,-0.53202 z m -1.01884,0.30259 c 0.0828,-0.0326 0.18165,-0.0286 0.21974,0.009 0.0381,0.0376 -0.0296,0.0643 -0.15047,0.0594 -0.13356,-0.005 -0.16072,-0.0323 -0.0693,-0.0684 z m -50.2204598,0.0985 c 0.025,-0.0739 -0.0363,-0.13431 -0.13613,-0.13431 -0.0998,0 -0.18153,0.0806 -0.18153,0.17908 0,0.19971 0.24681,0.16493 0.31766,-0.0448 z m 2.61581,-0.69982 c 0.28535,0 0.54241,-0.32844 0.41197,-0.5264 -0.0429,-0.0651 -0.18654,-0.17468 -0.31921,-0.24353 -0.20376,-0.10573 -0.28832,-0.0767 -0.54457,0.18718 -0.28945,0.29806 -0.40004,0.78898 -0.21815,0.96841 0.0469,0.0463 0.15634,-0.0216 0.24328,-0.15079 0.0869,-0.12918 0.27894,-0.23487 0.42668,-0.23487 z m 50.2630498,-0.0934 c 0,-0.15344 -0.4932,-0.56167 -0.8312,-0.68799 -0.48101,-0.17977 -0.39692,0.0807 0.091,0.28177 0.22344,0.0921 0.43533,0.24219 0.47086,0.33354 0.0685,0.17614 0.26937,0.23034 0.26937,0.0727 z M 7.9525162,257.03759 c 0.29904,-0.0913 0.25011,-0.40766 -0.0631,-0.40766 -0.31656,0 -0.53885,0.19636 -0.53885,0.47598 0,0.15971 0.044,0.18135 0.20064,0.0987 0.11034,-0.0582 0.29091,-0.13337 0.40126,-0.16706 z m 36.2573298,0.15785 c 0.039,-0.0623 0.0227,-0.1131 -0.0362,-0.1131 -0.0589,0 -0.28121,-0.0285 -0.49402,-0.0634 l -0.38694,-0.0634 0.28662,0.17249 c 0.33715,0.2029 0.53259,0.22379 0.63056,0.0674 z M 6.2985362,256.25298 c 0.0219,-0.11161 -0.0365,-0.18855 -0.1433,-0.18855 -0.10636,0 -0.18039,0.0967 -0.18039,0.23561 0,0.27564 0.26791,0.23668 0.32369,-0.0471 z m 42.8984798,-0.007 c 0,-0.18235 -0.24416,-0.29486 -0.63994,-0.29486 -0.3955,0 -0.34258,0.17281 0.0954,0.31141 0.51493,0.16295 0.54457,0.16205 0.54457,-0.0166 z m 1.33727,-0.4721 c 0.0956,-0.24565 -0.14703,-0.47667 -0.32066,-0.30538 -0.14675,0.14477 -0.0558,0.48262 0.12986,0.48262 0.067,0 0.15288,-0.0797 0.1908,-0.17724 z m 2.4461,-0.21193 c 0,-0.0274 -0.0516,-0.0813 -0.11465,-0.11977 -0.063,-0.0385 -0.11464,-0.016 -0.11464,0.0499 0,0.0659 0.0516,0.11977 0.11464,0.11977 0.0631,0 0.11465,-0.0225 0.11465,-0.0499 z M 8.4749562,255.09988 c -0.0353,-0.0348 -0.0994,0.0279 -0.14246,0.1395 -0.0622,0.16118 -0.0491,0.17417 0.0642,0.0633 0.0784,-0.0768 0.11358,-0.16798 0.0783,-0.20281 z m 0.52579,-0.11935 c 0.10762,-0.27669 0.0843,-0.31324 -0.10238,-0.16041 -0.19059,0.15604 -0.22817,0.3393 -0.0696,0.3393 0.0563,0 0.1337,-0.0805 0.17197,-0.17889 z m 44.0942898,-0.44317 c 0,-0.0933 -0.0216,-0.16965 -0.048,-0.16965 -0.0264,0 -0.12955,-0.0309 -0.22928,-0.0687 -0.11647,-0.0441 -0.18135,-0.007 -0.18135,0.10369 0,0.15634 0.14562,0.27177 0.3726,0.29534 0.0473,0.005 0.086,-0.0674 0.086,-0.16073 z m 0.74521,-0.0565 c 0.0395,-0.063 -0.0462,-0.11234 -0.19387,-0.11138 -0.21297,9.9e-4 -0.2311,0.0232 -0.0928,0.11138 0.21333,0.136 0.20142,0.136 0.28662,0 z m -11.21228,-0.98122 0.25248,-0.2629 h -0.24346 c -0.27881,0 -0.66276,0.30295 -0.66276,0.52293 0,0.20337 0.33772,0.069 0.65374,-0.26003 z m 10.84712,-0.13891 c -0.0913,-0.34429 -0.73865,-0.92921 -1.28419,-1.16028 -0.47,-0.19907 -0.54746,-0.20173 -1.1844,-0.0407 -0.37484,0.0947 -0.70315,0.17223 -0.72959,0.17223 -0.0264,0 -0.0481,0.0718 -0.0481,0.15972 0,0.0991 0.18036,0.18976 0.47557,0.23897 0.26157,0.0436 0.65386,0.15274 0.87174,0.24254 0.21789,0.0898 0.53359,0.13353 0.70155,0.0972 0.22003,-0.0476 0.4152,0.0137 0.69828,0.21979 0.47019,0.34222 0.57502,0.35706 0.4991,0.0706 z m 4.95107,0.10221 c 0.0389,-0.0623 0.0162,-0.1131 -0.0506,-0.1131 -0.0668,0 -0.12141,0.0509 -0.12141,0.1131 0,0.0622 0.0227,0.1131 0.0506,0.1131 0.0278,0 0.0824,-0.0509 0.12142,-0.1131 z M 5.4777562,253.07469 c -0.0379,-0.0975 -0.17537,-0.17725 -0.30544,-0.17725 -0.13007,0 -0.26619,-0.0764 -0.30249,-0.16965 -0.0835,-0.21464 -0.27075,-0.22159 -0.27075,-0.0101 0,0.24133 0.69718,0.78127 0.83423,0.64607 0.0624,-0.0616 0.0824,-0.19164 0.0444,-0.28912 z m 45.5082398,0.0796 c -0.11654,-0.11497 -0.2127,0.0581 -0.11708,0.21074 0.0722,0.11531 0.0992,0.1154 0.13807,4.4e-4 0.0266,-0.0786 0.0171,-0.17363 -0.021,-0.21121 z m -44.7835998,-0.4409 c 8.6e-4,-0.13235 -0.0756,-0.304 -0.17022,-0.38144 -0.14794,-0.12111 -0.17197,-0.0782 -0.17197,0.30661 0,0.24607 0.0352,0.48209 0.0781,0.5245 0.10735,0.1059 0.2619,-0.15733 0.26404,-0.44967 z m 37.9501298,-0.0921 c 0,-0.19169 0.0602,-0.23171 0.50728,-0.33745 0.29867,-0.0706 0.31861,-0.0595 0.18255,0.10226 -0.11416,0.13569 -0.11979,0.21406 -0.0223,0.31025 0.0975,0.0962 0.31201,0.0906 0.84927,-0.0222 1.00266,-0.21053 2.24455,-0.27484 2.42676,-0.12566 0.0822,0.0674 0.3894,0.15487 0.68256,0.19451 l 0.53301,0.0721 v -0.58087 c 0,-0.60867 -0.16672,-0.75818 -0.45859,-0.41124 -0.0785,0.0933 -0.2414,0.16966 -0.36202,0.16966 -0.17945,0 -0.19824,-0.0388 -0.1034,-0.21362 0.097,-0.17887 0.0618,-0.23574 -0.21664,-0.34951 -0.27547,-0.11256 -0.48974,-0.0967 -1.24858,0.0926 -0.50383,0.12569 -1.06343,0.30371 -1.24355,0.39559 -0.18012,0.0919 -0.50695,0.16493 -0.7263,0.16229 -0.57709,-0.007 -1.02936,0.20192 -1.02936,0.47532 0,0.12594 0.0516,0.22899 0.11465,0.22899 0.0631,0 0.11465,-0.0733 0.11465,-0.16297 z m -37.4897898,-0.0632 c 0,-0.0622 -0.0486,-0.1131 -0.10788,-0.1131 -0.0593,0 -0.13977,0.0509 -0.17874,0.1131 -0.0389,0.0622 0.01,0.1131 0.10788,0.1131 0.0983,0 0.17874,-0.0509 0.17874,-0.1131 z m 48.7252598,-0.32721 c 0,-0.13351 -0.29104,-0.2383 -0.66185,-0.2383 -0.28766,0 -0.2906,0.006 -0.0766,0.16606 0.24551,0.18319 0.73846,0.23142 0.73846,0.0722 z m -4.32795,-0.51129 c 0.48361,-0.0861 0.50932,-0.13162 0.24019,-0.42498 -0.27857,-0.30367 -0.5264,-0.2525 -0.78199,0.16146 -0.32993,0.53435 -0.33796,0.56972 -0.10203,0.44927 0.11764,-0.0601 0.40737,-0.14364 0.64383,-0.18575 z M 7.0066762,251.54018 c 0,-0.26374 -0.0919,-0.2789 -0.38084,-0.0628 -0.20207,0.1511 -0.20207,0.15793 0,0.20948 0.36139,0.0922 0.38084,0.0847 0.38084,-0.14667 z m 45.9417798,-0.073 c 0.0269,-0.081 -0.1525,-0.1449 -0.47842,-0.17047 -0.54823,-0.043 -0.6125,-0.005 -0.37872,0.22595 0.1708,0.16849 0.79616,0.12802 0.85714,-0.0555 z m -3.67312,-0.28751 c -0.0366,-0.0903 -0.0638,-0.0634 -0.0693,0.0684 -0.005,0.11923 0.0221,0.18603 0.0602,0.14845 0.0381,-0.0376 0.0422,-0.13513 0.009,-0.21677 z M 4.2264762,251.05933 c -0.0263,-0.0777 -0.11656,-0.14138 -0.20062,-0.14138 -0.0841,0 -0.17436,0.0636 -0.20064,0.14138 -0.0284,0.0841 0.0529,0.14138 0.20064,0.14138 0.14775,0 0.22904,-0.0573 0.20062,-0.14138 z m 46.0907498,-0.44534 c -0.0709,-0.20971 -0.31766,-0.2445 -0.31766,-0.0448 0,0.0985 0.0817,0.17907 0.18152,0.17907 0.0998,0 0.1611,-0.0605 0.13614,-0.1343 z m 1.746,-0.0918 c 0,-0.0622 -0.0486,-0.11311 -0.10788,-0.11311 -0.0593,0 -0.13977,0.0509 -0.17874,0.11311 -0.039,0.0622 0.01,0.1131 0.10788,0.1131 0.0983,0 0.17874,-0.0509 0.17874,-0.1131 z M 6.3761262,250.29598 c 0.039,-0.0622 0.0162,-0.11308 -0.0506,-0.11308 -0.0668,0 -0.12141,0.0509 -0.12141,0.11308 0,0.0623 0.0227,0.1131 0.0506,0.1131 0.0278,0 0.0824,-0.0509 0.12141,-0.1131 z m 0.50744,-1.29058 c 0.19587,-0.23284 -0.0526,-0.34266 -0.33454,-0.14786 -0.12582,0.0869 -0.1947,0.19168 -0.15306,0.23276 0.12483,0.12314 0.34481,0.0848 0.4876,-0.0849 z m -2.39913,-0.61913 c 0,-0.25075 -0.50213,-0.60844 -0.78066,-0.55608 -0.10661,0.02 -0.20964,0.14523 -0.22894,0.27821 -0.0258,0.17782 0.05,0.27239 0.28662,0.35749 0.50536,0.18177 0.72298,0.15781 0.72298,-0.0796 z m 1.71001,-0.37344 c 0.14529,-0.41117 -0.0246,-0.73703 -0.22436,-0.43033 -0.0909,0.13959 -0.12712,0.14232 -0.20984,0.0158 -0.0785,-0.12002 -0.14048,-0.0958 -0.28841,0.11251 -0.20819,0.29322 -0.0578,0.43451 0.22026,0.20688 0.14045,-0.115 0.16812,-0.0889 0.16812,0.15896 0,0.40705 0.17998,0.37267 0.33423,-0.0638 z m 42.3722098,0.24703 c 0.0475,-0.0758 0.14251,-0.0757 0.28643,3.4e-4 0.24165,0.12758 0.29221,0.0686 0.2889,-0.3372 -0.001,-0.16035 -0.076,-0.29263 -0.17425,-0.30861 -0.23613,-0.0384 -0.85029,0.47807 -0.75306,0.63328 0.0979,0.15627 0.25825,0.16183 0.35198,0.0122 z M 7.7360362,248.09051 c -0.0363,-0.0933 -0.10575,-0.16965 -0.15434,-0.16965 -0.0486,0 -0.15257,0.0763 -0.23107,0.16965 -0.12062,0.14338 -0.0967,0.16966 0.15434,0.16966 0.21695,0 0.27926,-0.0458 0.23107,-0.16966 z m -0.57789,-0.31548 c -0.0351,-0.056 -0.1132,-0.0502 -0.17734,0.013 -0.0631,0.0623 -0.0766,0.17387 -0.03,0.24814 0.0643,0.1026 0.10687,0.0995 0.17734,-0.013 0.051,-0.0814 0.0645,-0.19309 0.03,-0.24813 z m 0.63039,-0.673 c -0.0463,-0.3202 -0.43791,-0.42136 -0.43791,-0.11311 0,0.25616 0.0944,0.36644 0.3137,0.36644 0.10105,0 0.14722,-0.0941 0.12421,-0.25333 z m 41.5231398,0.0837 c 0,-0.0933 -0.0774,-0.16965 -0.17197,-0.16965 -0.29837,0 -0.20168,0.2229 0.14331,0.33037 0.0158,0.005 0.0286,-0.0674 0.0286,-0.16072 z M 5.0576762,247.06596 c 0,-0.097 -0.0516,-0.14488 -0.11465,-0.10644 -0.063,0.0385 -0.11465,0.1178 -0.11465,0.17633 0,0.0585 0.0516,0.10642 0.11465,0.10642 0.0631,0 0.11465,-0.0793 0.11465,-0.17631 z m 0.80254,-0.33931 c 0,-0.0897 -0.0516,-0.16298 -0.11465,-0.16298 -0.0631,0 -0.11465,0.10479 -0.11465,0.23288 0,0.12808 0.0516,0.20143 0.11465,0.16297 0.0631,-0.0384 0.11465,-0.14324 0.11465,-0.23287 z m 37.3751398,0.17632 c -0.22453,-0.14314 -0.3763,-0.14314 -0.28663,0 0.039,0.0623 0.1581,0.11233 0.26473,0.11137 0.16707,-9.8e-4 0.1701,-0.0169 0.0219,-0.11137 z m 8.22222,0.0243 c 0.32564,0.11617 0.40652,0.10713 0.57811,-0.0646 0.18964,-0.18982 0.1885,-0.20774 -0.0231,-0.36243 -0.37413,-0.27359 -0.93404,-0.20186 -1.35205,0.17321 l -0.37442,0.33595 0.39639,-0.10859 c 0.27532,-0.0754 0.51205,-0.0674 0.77501,0.0264 z M 7.1213262,246.71948 c 0,-0.15028 -0.0311,-0.15802 -0.17197,-0.0427 -0.0946,0.0774 -0.17197,0.16002 -0.17197,0.1835 0,0.0235 0.0774,0.0427 0.17197,0.0427 0.0946,0 0.17197,-0.0826 0.17197,-0.1835 z m 41.3932998,-0.0528 c 0.10979,-0.20239 0.0982,-0.23061 -0.0806,-0.19664 -0.11486,0.0218 -0.2261,0.12816 -0.24721,0.2363 -0.0534,0.27376 0.17266,0.24639 0.32785,-0.0396 z m -1.03126,-0.15956 c -0.009,-0.16788 -0.26547,-0.13703 -0.32498,0.0391 -0.0322,0.0951 0.0203,0.13753 0.13981,0.11311 0.10518,-0.0215 0.1885,-0.09 0.18517,-0.15218 z m 8.79077,-0.0118 c -0.0381,-0.0376 -0.13698,-0.0416 -0.21975,-0.009 -0.0915,0.0361 -0.0643,0.0629 0.0693,0.0684 0.12086,0.005 0.18857,-0.0218 0.15048,-0.0594 z M 6.3823062,245.6687 c -0.0889,-0.14187 -0.40745,-0.16725 -0.40745,-0.0324 0,0.0498 0.0619,0.15155 0.13758,0.2262 0.16028,0.15812 0.38791,-0.005 0.26987,-0.19373 z m 0.80748,-0.0276 c 0.0876,-0.13975 -0.24601,-0.43464 -0.49163,-0.43464 -0.0825,0 -0.15005,0.0748 -0.15005,0.1661 0,0.1021 0.0671,0.14071 0.17411,0.10019 0.14496,-0.0549 0.15483,-0.0159 0.059,0.23288 -0.10562,0.27406 -0.0969,0.28911 0.10612,0.18195 0.1217,-0.0642 0.25782,-0.17517 0.3025,-0.24648 z m 42.2365398,0.0836 c 0,-0.37979 -0.11275,-0.63132 -0.28299,-0.63132 -0.13257,0 -0.13165,0.33792 0.002,0.76344 0.0778,0.2475 0.28092,0.15195 0.28092,-0.13212 z m 0.8909,-0.9494 c 0.025,-0.0739 -0.0363,-0.13431 -0.13614,-0.13431 -0.0998,0 -0.18152,0.0806 -0.18152,0.17908 0,0.19972 0.2468,0.16493 0.31766,-0.0448 z m 1.40205,-0.40781 c 0,-0.026 0.032,-0.12949 0.0711,-0.22995 0.0619,-0.15908 0.0323,-0.16522 -0.2293,-0.0477 -0.35648,0.16023 -0.39248,0.3249 -0.071,0.3249 0.12611,0 0.22929,-0.0213 0.22929,-0.0473 z m -2.24819,-0.7494 c -0.007,-0.27136 -0.0714,-0.51274 -0.14332,-0.53638 -0.0719,-0.0237 -0.13074,-0.14054 -0.13074,-0.25977 0,-0.11923 -0.0179,-0.21679 -0.0397,-0.21679 -0.11253,0 -0.76799,0.36917 -0.82935,0.46711 -0.0998,0.15932 0.32438,0.45034 0.46206,0.31699 0.24775,-0.23994 0.407,-0.1005 0.407,0.35635 0,0.31965 0.0441,0.44707 0.14331,0.41386 0.0881,-0.0295 0.13847,-0.238 0.13074,-0.54137 z m 3.04578,-0.89071 c 0.0857,-0.15805 0.079,-0.23078 -0.0246,-0.26747 -0.2059,-0.0729 -0.54366,0.12525 -0.54366,0.31888 0,0.24167 0.43041,0.20274 0.56829,-0.0514 z m 1.55926,0.0566 c 0.1223,-0.0882 0.18647,-0.19581 0.1426,-0.2391 -0.0439,-0.0433 -0.21842,0.0289 -0.38789,0.1604 -0.34459,0.26741 -0.11737,0.3403 0.24529,0.0787 z m -0.14259,-0.58492 c 0.41962,-0.38385 0.34297,-0.55294 -0.25646,-0.56583 -0.39319,-0.009 -0.50505,0.0347 -0.57521,0.22181 -0.0632,0.1685 -0.021,0.28682 0.15367,0.43084 0.31036,0.25595 0.30211,0.257 0.678,-0.0868 z m -3.65674,0.11117 c 0.18609,-0.0704 0.25858,-0.49685 0.0845,-0.49685 -0.15335,0 -0.48508,0.40608 -0.40017,0.48985 0.0933,0.092 0.0911,0.092 0.3157,0.007 z m -1.00089,-1.19605 c -0.0324,-0.47714 -0.25926,-0.71596 -0.36544,-0.38467 -0.0315,0.0985 -0.0838,0.26113 -0.11606,0.36145 -0.048,0.1492 -0.0902,0.15656 -0.23207,0.0404 -0.0954,-0.078 -0.20528,-0.11048 -0.24427,-0.072 -0.11431,0.11277 0.19342,0.40672 0.35984,0.34372 0.0836,-0.0317 0.18605,-0.003 0.22768,0.0632 0.0416,0.0665 0.1492,0.12082 0.23905,0.12082 0.12047,0 0.15494,-0.1242 0.13127,-0.47299 z m -1.74127,0.13369 c 0.0422,-0.0675 -0.0966,-0.1131 -0.34394,-0.1131 -0.24733,0 -0.38619,0.0457 -0.34394,0.1131 0.0389,0.0623 0.19375,0.11311 0.34394,0.11311 0.1502,0 0.30497,-0.0509 0.34394,-0.11311 z m 6.76422,-0.22621 c 0.0389,-0.0622 0.0193,-0.1131 -0.0438,-0.1131 -0.0631,0 -0.14653,0.0509 -0.1855,0.1131 -0.039,0.0622 -0.0193,0.11311 0.0438,0.11311 0.0631,0 0.14653,-0.0509 0.18551,-0.11311 z m 5.59551,20.62461 c -0.0793,-0.20387 0.23279,-0.4926 0.53247,-0.4926 0.21063,0 0.50288,0.41236 0.40405,0.57011 -0.11831,0.18885 -0.85669,0.12774 -0.93652,-0.0775 z m -13.44888,-8.18348 c 0,-0.0623 0.0546,-0.11311 0.12142,-0.11311 0.0668,0 0.0895,0.0509 0.0506,0.11311 -0.0389,0.0623 -0.0936,0.1131 -0.12141,0.1131 -0.0278,0 -0.0506,-0.0509 -0.0506,-0.1131 z m 13.87237,-0.62205 c 0,-0.0933 0.0774,-0.16966 0.17197,-0.16966 0.0946,0 0.17197,0.0764 0.17197,0.16966 0,0.0933 -0.0774,0.16964 -0.17197,0.16964 -0.0946,0 -0.17197,-0.0764 -0.17197,-0.16964 z m -6.11455,-5.22152 c -0.19025,-0.18767 -0.0559,-0.37698 0.26752,-0.37698 0.26751,0 0.34394,0.0503 0.34394,0.22619 0,0.16156 -0.0764,0.2262 -0.26751,0.2262 -0.14713,0 -0.30191,-0.0339 -0.34395,-0.0754 z m -9.1336,-0.70962 c 0,-0.20934 0.23324,-0.24297 0.4839,-0.0697 0.25345,0.17512 0.25276,0.1762 -0.11444,0.1762 -0.2032,0 -0.36946,-0.0479 -0.36946,-0.10643 z m 2.57565,-8.26932 c -0.0455,-0.0727 -0.0117,-0.17779 0.0752,-0.23361 0.23905,-0.15354 0.73123,-0.0682 0.73123,0.12677 0,0.20856 -0.68582,0.2994 -0.80646,0.10684 z"
       id="path886"
       inkscape:connector-curvature="0" />
  </g>
</svg>
