<?xml version="1.0" encoding="UTF-8" standalone="no"?>
<!-- Created with Inkscape (http://www.inkscape.org/) -->

<svg
   xmlns:dc="http://purl.org/dc/elements/1.1/"
   xmlns:cc="http://creativecommons.org/ns#"
   xmlns:rdf="http://www.w3.org/1999/02/22-rdf-syntax-ns#"
   xmlns:svg="http://www.w3.org/2000/svg"
   xmlns="http://www.w3.org/2000/svg"
   xmlns:sodipodi="http://sodipodi.sourceforge.net/DTD/sodipodi-0.dtd"
   xmlns:inkscape="http://www.inkscape.org/namespaces/inkscape"
   width="250"
   height="75"
   viewBox="0 0 66.145832 19.843751"
   version="1.1"
   id="svg8"
   inkscape:version="0.92.3 (2405546, 2018-03-11)"
   sodipodi:docname="rbcLogo_smol.svg">
  <defs
     id="defs2">
    <filter
       inkscape:label="Sharpen More"
       inkscape:menu="Image Effects"
       inkscape:menu-tooltip="Sharpen edges and boundaries within the object, force=0.3"
       style="color-interpolation-filters:sRGB"
       id="filter884">
      <feConvolveMatrix
         targetY="1"
         targetX="1"
         in="SourceGraphic"
         divisor="1"
         kernelMatrix="0 -0.3 0 -0.3 2.2 -0.3 0 -0.3 0"
         order="3 3"
         result="result1"
         id="feConvolveMatrix880" />
      <feBlend
         in2="SourceGraphic"
         mode="normal"
         result="result2"
         id="feBlend882" />
    </filter>
  </defs>
  <sodipodi:namedview
     id="base"
     pagecolor="#ffffff"
     bordercolor="#666666"
     borderopacity="1.0"
     inkscape:pageopacity="0.0"
     inkscape:pageshadow="2"
     inkscape:zoom="1.979899"
     inkscape:cx="93.283792"
     inkscape:cy="90.877972"
     inkscape:document-units="px"
     inkscape:current-layer="layer1"
     showgrid="false"
     units="px"
     inkscape:window-width="1366"
     inkscape:window-height="715"
     inkscape:window-x="1672"
     inkscape:window-y="288"
     inkscape:window-maximized="1" />
  <metadata
     id="metadata5">
    <rdf:RDF>
      <cc:Work
         rdf:about="">
        <dc:format>image/svg+xml</dc:format>
        <dc:type
           rdf:resource="http://purl.org/dc/dcmitype/StillImage" />
        <dc:title></dc:title>
      </cc:Work>
    </rdf:RDF>
  </metadata>
  <g
     inkscape:label="Layer 1"
     inkscape:groupmode="layer"
     id="layer1"
     transform="translate(0,-277.15624)">
    <path
       style="fill:#000000;stroke-width:0.11397166"
       d="m 47.555526,296.93315 c -0.0431,-0.0426 -0.0784,-0.8337 -0.0784,-1.75802 0,-1.56866 0.0144,-1.68062 0.2153,-1.68062 0.12321,0 0.50181,0.32711 0.88514,0.76478 0.36841,0.42063 0.83904,0.94174 1.04583,1.15801 l 0.37599,0.39325 v -1.15802 c 0,-0.95381 0.0303,-1.15802 0.17196,-1.15802 0.14546,0 0.17197,0.27026 0.17197,1.7526 0,1.40322 -0.0301,1.74116 -0.15101,1.69531 -0.0831,-0.0316 -0.63766,-0.62402 -1.23246,-1.3167 l -1.08145,-1.25944 -0.0328,1.23373 c -0.0309,1.16137 -0.10753,1.51358 -0.29011,1.33314 z m 4.37547,-0.15498 c -1.22041,-0.63717 -1.20601,-2.44023 0.0244,-3.06059 0.80929,-0.40802 1.89614,-0.23135 2.27614,0.36998 0.24659,0.39021 -0.0366,0.46025 -0.36925,0.0914 -0.39074,-0.43339 -0.74373,-0.51793 -1.26452,-0.30289 -1.17571,0.48547 -1.15365,2.24963 0.034,2.71924 0.34977,0.13831 0.52755,0.15097 0.80032,0.057 0.32682,-0.11259 0.35067,-0.1586 0.35067,-0.67622 0,-0.51691 -0.0199,-0.55541 -0.28662,-0.55541 -0.17834,0 -0.28662,-0.0642 -0.28662,-0.16994 0,-0.13047 0.1465,-0.16996 0.63057,-0.16996 h 0.63056 v 0.79887 0.79889 l -0.39759,0.16416 c -0.56727,0.23423 -1.63134,0.20222 -2.14211,-0.0644 z m 5.50309,0 c -0.90035,-0.47008 -1.19114,-1.67427 -0.60881,-2.52117 0.54161,-0.78768 1.79914,-1.01697 2.60597,-0.47516 0.40768,0.27376 0.52158,0.48871 0.34924,0.65902 -0.0432,0.0428 -0.21888,-0.074 -0.39029,-0.25949 -0.39854,-0.43121 -0.76971,-0.51993 -1.28506,-0.30712 -0.44922,0.18548 -0.8829,0.86158 -0.8829,1.37642 0,0.54469 0.40943,1.14558 0.91744,1.34646 0.5248,0.20752 0.73595,0.1484 1.28833,-0.36069 0.33074,-0.30482 0.56554,-0.26056 0.35899,0.0677 -0.42225,0.67101 -1.54315,0.89684 -2.35291,0.47406 z m -25.31969,-1.58416 v -1.6995 h 0.92472 c 0.926,0 1.30392,0.10706 1.56522,0.44339 0.2259,0.29075 0.17477,0.77081 -0.10253,0.96276 l -0.2495,0.17269 0.30682,0.2385 c 0.21056,0.16369 0.30681,0.3449 0.30681,0.57762 0,0.76805 -0.43515,1.00402 -1.85146,1.00402 h -0.90008 z m 1.8419,1.2423 c 0.2751,-0.14549 0.2922,-0.63769 0.032,-0.9218 -0.13408,-0.14642 -0.35268,-0.20721 -0.7452,-0.20721 h -0.55548 v 0.62315 0.62315 h 0.52346 c 0.2879,0 0.62324,-0.0528 0.7452,-0.11729 z m 0.005,-1.71149 c 0.30268,-0.47209 -0.0388,-0.92128 -0.71154,-0.93602 l -0.50467,-0.0111 -0.0363,0.43679 c -0.0582,0.70014 0.0201,0.79053 0.62576,0.72306 0.29043,-0.0324 0.57247,-0.12811 0.62677,-0.21278 z m 1.41668,2.02929 c -0.0331,-0.0854 -0.0458,-0.84101 -0.0282,-1.67911 l 0.0322,-1.52383 0.92448,-0.0327 c 0.84972,-0.0299 0.94936,-0.01 1.23245,0.24952 0.43158,0.39527 0.41708,0.88621 -0.036,1.21721 -0.18918,0.13821 -0.34395,0.2825 -0.34395,0.32062 0,0.0382 0.22888,0.38017 0.50863,0.76011 0.27975,0.37993 0.47752,0.72154 0.43948,0.75912 -0.038,0.0376 -0.18318,0.0683 -0.32256,0.0683 -0.18157,0 -0.41947,-0.22488 -0.83898,-0.79309 -0.75544,-1.0232 -0.91216,-1.02785 -0.95646,-0.0283 -0.0308,0.69537 -0.0574,0.76807 -0.29237,0.80106 -0.14217,0.0199 -0.28561,-0.0336 -0.31878,-0.11902 z m 1.55174,-1.9 c 0.12611,-0.12464 0.2293,-0.32658 0.2293,-0.44879 0,-0.32203 -0.4585,-0.70035 -0.80086,-0.66083 -0.25218,0.0292 -0.29279,0.0952 -0.32418,0.52775 -0.0198,0.27198 -0.008,0.56514 0.025,0.65148 0.0901,0.23193 0.60741,0.19058 0.87068,-0.0695 z m 1.68151,1.96385 c -0.042,-0.0415 -0.0764,-0.80631 -0.0764,-1.69949 v -1.62396 h 1.20379 c 0.72611,0 1.20381,0.045 1.20381,0.1133 0,0.0654 -0.36306,0.11331 -0.85986,0.11331 h -0.85986 v 0.56649 0.5665 h 0.57324 c 0.56032,0 0.75382,0.13387 0.39189,0.27113 -0.0997,0.0379 -0.35771,0.0688 -0.57325,0.0688 h -0.39188 v 0.67483 0.67483 l 0.82202,0.0333 c 0.53029,0.0214 0.83885,0.0836 0.86942,0.17492 0.0358,0.10692 -0.23116,0.14162 -1.08954,0.14162 -0.6253,0 -1.17132,-0.034 -1.21335,-0.0755 z m 3.70996,-0.17049 c -0.0632,-0.1451 -0.35162,-0.85015 -0.64094,-1.56676 -0.28932,-0.71662 -0.55342,-1.36669 -0.58689,-1.44457 -0.0409,-0.0951 0.0515,-0.14163 0.28084,-0.14163 0.31984,0 0.36395,0.0561 0.68962,0.87807 0.19137,0.48294 0.38195,0.9928 0.42352,1.13301 0.0415,0.1402 0.11684,0.25491 0.16727,0.25491 0.0504,0 0.25722,-0.43337 0.45951,-0.96305 0.20229,-0.52968 0.40866,-0.96305 0.45859,-0.96305 0.0499,0 0.2563,0.43337 0.4586,0.96305 0.20229,0.52968 0.4026,0.96298 0.44515,0.96288 0.0426,-9e-5 0.27377,-0.50993 0.51387,-1.13299 0.27434,-0.71192 0.49798,-1.13283 0.6019,-1.13283 0.18271,0 0.22671,0.28906 0.0595,0.39116 -0.0582,0.0356 -0.13981,0.21752 -0.18134,0.40438 -0.0415,0.18686 -0.14248,0.47944 -0.22435,0.65018 -0.0819,0.17073 -0.28948,0.68253 -0.46136,1.13729 -0.17187,0.45478 -0.36986,0.80798 -0.43996,0.78489 -0.11332,-0.0374 -0.3718,-0.57913 -0.76896,-1.61174 -0.13008,-0.33825 -0.13255,-0.33522 -0.50429,0.61723 -0.20546,0.52644 -0.43248,0.97656 -0.50449,1.00028 -0.072,0.0237 -0.18263,-0.0756 -0.24583,-0.22071 z m 3.78035,-1.46099 v -1.70703 l 0.31528,0.0359 0.31528,0.0359 0.0332,1.30294 c 0.0438,1.71781 -0.0165,2.03939 -0.38236,2.03939 h -0.28142 z m 15.42011,1.53674 c -1.09515,-0.38291 -1.47384,-1.60362 -0.78195,-2.5207 0.37446,-0.49636 0.82813,-0.70801 1.51757,-0.70801 1.10449,0 1.86372,0.65514 1.86236,1.60698 -10e-4,0.88754 -0.31596,1.34142 -1.12863,1.62786 -0.55585,0.19591 -0.89553,0.1945 -1.46935,-0.006 z m 1.13041,-0.099 c 0.74685,-0.30839 1.02635,-1.68775 0.49875,-2.46145 -0.24378,-0.35751 -0.30631,-0.38498 -0.87614,-0.38498 -0.53978,0 -0.64271,0.0386 -0.8553,0.31989 -0.19014,0.25168 -0.24167,0.48348 -0.24167,1.08726 0,0.83126 0.099,1.03082 0.68789,1.38663 0.41092,0.24828 0.32639,0.24262 0.78647,0.0527 z M 0.01066619,291.88023 c -0.0337,-1.91271 0.0195,-14.40967 0.0616,-14.47702 0.0328,-0.0524 0.25211,-0.0913 0.48748,-0.0865 0.23537,0.005 1.46506001,9.9e-4 2.73265001,-0.008 l 2.3047,-0.0163 c 1.51433,-0.0879 0,0 1.51433,-0.0879 0.0403,0.0454 1.74396,0.0861 3.7858698,0.0908 2.92925,0.007 3.73254,-0.0228 3.80716,-0.13905 1.08711,0.0258 0,0 1.08711,0.0258 0.0852,0.0839 0.73702,0.12353 1.92315,0.11664 1.61827,-0.01 1.8012,0.009 1.86487,0.18987 0.16094,0.45668 3.46288,8.07318 3.73706,8.62017 0.11987,0.23915 0.13868,0.24415 0.21306,0.0566 0.0449,-0.11311 0.83403,-2.05928 1.75368,-4.32484 0.91964,-2.26555 1.67208,-4.18479 1.67208,-4.26494 0,-0.0801 0.0836,-0.17744 0.18572,-0.21618 0.10214,-0.0388 4.98458,-0.0682 10.84986,-0.0653 5.86527,0.003 10.67558,-0.009 10.68957,-0.0267 1.67907,-0.0356 0,0 1.67907,-0.0356 0.0368,0.0364 3.54376,0.0653 7.79314,0.0641 4.24938,-9.8e-4 7.79102,0.0391 7.87031,0.0893 0.11384,0.072 0.13796,1.61539 0.11465,7.33521 l -0.0295,7.24397 -33.04719,0.0286 c -26.3997398,0.0228 -33.04768981,-10e-6 -33.04968981,-0.1133 z M 65.591626,284.65686 v -6.79832 l -18.59274,0.0286 -18.59274,0.0287 -0.7705,1.81277 c -1.02704,2.4164 -0.95421,2.24254 -1.42395,3.39901 -0.22782,0.56083 -0.45974,1.12165 -0.51539,1.24628 -0.26939,0.60319 -0.49353,1.13202 -1.03243,2.43595 -1.12701,2.72686 -0.93808,2.43131 -1.57866,2.46953 l -0.5629,0.0336 -0.46575,-0.99665 c -0.25616,-0.54815 -0.68383,-1.50648 -0.95037,-2.12962 -0.26655,-0.62316 -0.64896,-1.48989 -0.84979,-1.9261 -0.20084,-0.4362 -0.92802,-2.0553 -1.61597,-3.59799 l -1.25079,-2.80488 -8.4302798,0.029 -8.43029001,0.029 -0.026,6.67142 c -0.0143,3.66927 0.002,6.71562 0.0354,6.76965 0.0344,0.055 14.33865981,0.0983 32.55727981,0.0983 h 32.49585 z m -62.4267798,4.3907 c -0.0345,-0.14022 -0.0484,-2.06489 -0.0308,-4.27706 l 0.032,-4.02215 2.29295,0.003 c 2.13571,0.003 2.33197,0.0201 2.862,0.25926 0.70848,0.31961 0.94166,0.52566 1.23272,1.08926 0.5164698,1.00004 0.0531,2.17947 -1.09399,2.78439 -0.2954,0.15578 -0.5174,0.33423 -0.49332,0.39654 0.0791,0.20465 2.6088398,3.5114 2.7153798,3.54935 0.0929,0.0332 0.86275,-1.47856 2.58164,-5.06913 0.31067,-0.64894 0.79701,-1.64313 1.08076,-2.20933 l 0.51592,-1.02947 h 0.45858 c 0.45369,0 0.46289,0.009 0.85987,0.79848 0.22069,0.43917 0.55208,1.12746 0.73641,1.52954 0.18432,0.40209 0.63575,1.36173 1.00316,2.13251 0.36741,0.77081 0.66803,1.4179 0.66803,1.438 0,0.02 0.28541,0.63454 0.63426,1.36544 0.48395,1.01399 0.59942,1.35131 0.48725,1.42342 -0.0809,0.052 -0.58009,0.0815 -1.1094,0.0656 -0.71232,-0.0214 -0.98798,-0.073 -1.06088,-0.19886 -0.0542,-0.0935 -0.30232,-0.61606 -0.55144,-1.16133 l -0.45296,-0.99136 h -1.61336 -1.61336 l -0.4961,1.01644 c -0.27285,0.55905 -0.56156,1.09439 -0.64154,1.18965 -0.11852,0.14111 -0.45614,0.17289 -1.82248,0.17147 -0.9223598,-8.6e-4 -1.7323998,-0.0392 -1.8000798,-0.0849 -0.0677,-0.0458 -0.75249,-0.91174 -1.52178,-1.92435 -0.76928,-1.01261 -1.47487,-1.84112 -1.56798,-1.84112 -0.14264,0 -0.16928,0.30314 -0.16928,1.92609 v 1.9261 h -1.02965 c -0.97273,0 -1.03311,-0.0141 -1.09246,-0.25493 z m 12.8989798,-3.09468 c 0,-0.0352 -0.13527,-0.35381 -0.3006,-0.70812 -0.16533,-0.35432 -0.39566,-0.8609 -0.51184,-1.12575 -0.11618,-0.26483 -0.23974,-0.48151 -0.27457,-0.48151 -0.0584,0 -0.94784,1.72837 -1.12231,2.18101 -0.0696,0.18063 0.0253,0.19828 1.06644,0.19828 0.62859,0 1.14288,-0.0288 1.14288,-0.0639 z m -9.2764198,-1.66731 c 0.21334,-0.14207 0.45531,-0.38427 0.53771,-0.53818 0.20105,-0.37552 0.116,-1.25084 -0.15664,-1.6121 -0.26206,-0.34726 -0.8736,-0.56971 -1.42419,-0.51806 l -0.40001,0.0376 -0.0321,1.44456 -0.0321,1.44457 h 0.55971 c 0.39278,0 0.6754,-0.077 0.94759,-0.25832 z m 21.6665998,4.85676 c -0.0874,-0.10411 -0.11658,-1.40632 -0.0957,-4.27186 l 0.0301,-4.12212 3.23879,-0.0301 3.2388,-0.0302 v 0.39833 0.39831 h -2.12098 -2.12098 v 1.35959 1.35959 h 1.77704 1.77703 v 0.39656 0.39654 h -1.77703 -1.77704 v 1.64285 1.64284 h 2.12098 2.12098 v 0.50924 0.50924 l -3.14313,-0.005 c -2.46131,-0.003 -3.17042,-0.0371 -3.26891,-0.15435 z m 8.13175,-4.15723 v -4.29339 l 0.65923,0.002 c 0.36258,8.6e-4 0.71252,0.0392 0.77764,0.0849 0.0651,0.0458 0.78636,0.82252 1.60272,1.72609 0.81637,0.90356 1.67375,1.84678 1.90529,2.09605 0.23154,0.24924 0.60543,0.65713 0.83088,0.90639 l 0.4099,0.4532 0.003,-2.63421 0.003,-2.63423 h 0.68789 0.68789 v 4.30538 4.3054 h -0.50356 c -0.56281,0 -0.095,0.4593 -4.21044,-4.13362 l -1.41966,-1.58435 -0.0573,2.83066 -0.0573,2.83066 -0.65923,0.0163 -0.65923,0.0164 z m 9.63041,0.0177 v -4.31104 l 0.65923,0.002 c 0.36257,8.6e-4 0.71425,0.0392 0.78152,0.085 0.0673,0.0458 0.58311,0.59309 1.14631,1.21625 0.56322,0.62313 1.14287,1.26045 1.28812,1.41623 0.14524,0.1558 0.71283,0.7817 1.26128,1.39093 l 0.9972,1.10767 0.0308,-2.60889 0.0308,-2.6089 h 0.68577 0.68577 v 4.30538 4.30541 h -0.50511 -0.50509 l -1.63921,-1.84112 c -0.90157,-1.01262 -2.05434,-2.29526 -2.56172,-2.8503 l -0.92252,-1.00918 -0.0573,2.82197 -0.0573,2.82198 -0.65922,0.034 -0.65922,0.034 z m 8.59858,4.17675 c 0,-0.0504 0.41581,-0.94832 0.92402,-1.99539 0.50821,-1.04706 1.26919,-2.61627 1.69106,-3.48715 1.62611,-3.35681 1.50777,-3.17073 2.04098,-3.20927 0.43462,-0.0315 0.48534,-0.005 0.64945,0.3399 0.66054,1.38773 1.2294,2.60986 1.2294,2.64125 0,0.0203 0.23631,0.53821 0.52514,1.15084 0.28883,0.61263 0.59424,1.26683 0.6787,1.45377 0.26874,0.59486 1.09917,2.36712 1.2673,2.70464 0.0891,0.17893 0.13407,0.37012 0.0998,0.42486 -0.0767,0.12258 -1.8868,0.12973 -2.08033,0.008 -0.077,-0.0483 -0.374,-0.58288 -0.6601,-1.18791 l -0.52017,-1.10005 h -1.60423 -1.60423 l -0.52131,1.04288 c -0.28673,0.5736 -0.57266,1.10402 -0.6354,1.17874 -0.12696,0.15117 -1.48011,0.18289 -1.48011,0.0347 z m 5.33051,-3.39118 c -0.17141,-0.53374 -0.99399,-2.15081 -1.09406,-2.15081 -0.06,0 -0.10914,0.0492 -0.10914,0.1094 0,0.0602 -0.23216,0.57731 -0.51591,1.14921 -0.28375,0.57186 -0.51591,1.05797 -0.51591,1.08022 0,0.0222 0.51938,0.0405 1.1542,0.0405 1.10521,0 1.15109,-0.01 1.08082,-0.22848 z"
       id="path886"
       inkscape:connector-curvature="0"
       sodipodi:nodetypes="csscccssscccccccccccccssssccccccccccccscccccccsccccssccccscccscccccccccccccccsccsccccccsccccccscssscccscscccccscccscsccssscccscccccccccccccccsccccscsccccscscccccccccccccccccsccccccccccccccccccccccccccccscscccsccccccccccscccscccccccccccccsscsccsccscsscscccccsccccccccccccccccccccccccccccccccccccccccccsccccccccccccccccccccccccscccccccssccsscccccccccccccsscsscc" />
  </g>
</svg>
